<svg width="24" height="24" viewBox="0 0 24 24" fill="none" xmlns="http://www.w3.org/2000/svg">
<path d="M11.6791 6.89576C10.5638 6.89576 8.83744 5.81789 7.01938 5.85685C4.62076 5.88282 2.42075 7.03861 1.18324 8.86968C-1.30705 12.5448 0.541572 17.9731 2.97075 20.96C4.16242 22.4145 5.56798 24.0507 7.43188 23.9988C9.21939 23.9339 9.89161 23.0118 12.0611 23.0118C14.2152 23.0118 14.8264 23.9988 16.7208 23.9598C18.6458 23.9339 19.868 22.4794 21.0444 21.0119C22.4042 19.3237 22.9694 17.6874 23 17.5965C22.9542 17.5835 19.2569 16.3758 19.2111 12.7396C19.1805 9.70081 22.1292 8.24634 22.2667 8.18141C20.5861 6.0906 18.0041 5.85685 17.1028 5.8049C14.75 5.64907 12.7791 6.89576 11.6791 6.89576ZM15.6514 3.83098C16.6444 2.81804 17.3014 1.40253 17.118 0C15.6972 0.0519454 13.9861 0.805154 12.9625 1.81809C12.0458 2.71415 11.2513 4.15564 11.4652 5.53219C13.0388 5.63608 14.6583 4.84391 15.6514 3.83098Z" fill="#1F3D3B"/>
</svg>
