<svg width="37" height="24" viewBox="0 0 37 24" fill="none" xmlns="http://www.w3.org/2000/svg">
<path d="M35.7009 17.5898C35.2218 17.1838 34.6325 16.8696 33.9716 16.6848V16.6829C33.9716 16.6829 33.971 16.6829 33.9705 16.6829C33.5645 15.766 32.8822 14.3738 32.0078 12.7708C30.5924 10.1826 28.6776 7.05447 26.6019 4.54272C25.5598 3.28523 24.4811 2.18081 23.3739 1.36585C22.819 0.958372 22.2565 0.623273 21.6752 0.383374C21.0939 0.145249 20.4884 0 19.8706 0H14.1727C13.5979 0 13.0494 0.0810064 12.5397 0.229437C11.6422 0.490321 10.8694 0.954701 10.1925 1.52786C9.17669 2.39104 8.35719 3.50824 7.61885 4.68926C6.88051 5.87205 6.22397 7.12361 5.57755 8.25587C4.83929 9.54744 4.43756 10.5144 4.21982 11.2807C4.13968 11.5607 4.087 11.8143 4.04826 12.0455C3.995 12.0875 3.94391 12.1302 3.89506 12.1753C3.59552 12.0765 3.27935 12.03 2.96745 12.03C2.55554 12.03 2.14796 12.111 1.77478 12.27C1.40319 12.427 1.06874 12.662 0.810028 12.966C0.475582 13.3612 0.309948 13.8224 0.309948 14.2763C0.309948 14.6615 0.42832 15.043 0.655235 15.3831C0.534768 15.4969 0.430994 15.6194 0.342829 15.7505C0.124803 16.077 0 16.4553 0 16.8541C0 17.4737 0.30012 18.0383 0.779243 18.4439C1.13999 18.7516 1.6111 18.9706 2.13697 19.0585C2.27406 19.4319 2.52468 19.7615 2.85111 20.0219C3.32214 20.3984 3.96639 20.6297 4.66599 20.6297C5.10046 20.6297 5.51396 20.5418 5.87486 20.3829C5.99583 20.3315 6.11145 20.2705 6.22007 20.2017C6.32818 20.2705 6.44438 20.3314 6.56478 20.3829C6.92719 20.5418 7.33961 20.6297 7.77357 20.6297C8.20594 20.6297 8.61995 20.5418 8.98294 20.3829C9.10341 20.3315 9.21954 20.2705 9.32765 20.2017C9.43576 20.2705 9.55189 20.3314 9.67236 20.3829C10.0331 20.5418 10.4472 20.6297 10.8795 20.6297C11.3134 20.6297 11.7275 20.5418 12.0889 20.3829C12.2088 20.3315 12.3255 20.2705 12.433 20.2017C12.5411 20.2705 12.6577 20.3314 12.7777 20.3829C13.1412 20.5418 13.5525 20.6297 13.9871 20.6297C14.4194 20.6297 14.8334 20.5418 15.1964 20.3829C15.3168 20.3315 15.433 20.2705 15.5411 20.2017C15.6493 20.2705 15.7654 20.3314 15.8858 20.3829C16.2466 20.5418 16.6607 20.6297 17.0951 20.6297C17.5275 20.6297 17.941 20.5418 18.3024 20.3829C18.4244 20.3296 18.5405 20.2691 18.6486 20.2017C18.7568 20.2705 18.8713 20.3314 18.9912 20.3829C19.3542 20.5418 19.7682 20.6297 20.2006 20.6297C20.635 20.6297 21.0469 20.5418 21.4099 20.3829C21.5303 20.3315 21.6465 20.2705 21.7546 20.2017C21.8627 20.2705 21.9789 20.3314 22.0993 20.3829C22.4601 20.5418 22.8741 20.6297 23.3081 20.6297C23.7405 20.6297 24.1545 20.5418 24.5153 20.3829C24.638 20.3296 24.7541 20.2691 24.8622 20.2017C24.9703 20.2705 25.0843 20.3314 25.2048 20.3829C25.5677 20.5418 25.9818 20.6297 26.4141 20.6297C27.0685 20.6297 27.6745 20.428 28.1332 20.0929C28.131 20.143 28.1289 20.1949 28.1289 20.2449C28.1289 21.2807 28.6268 22.2235 29.4281 22.9C30.2294 23.5784 31.343 24.0018 32.5647 24C33.7881 24.0018 34.9012 23.5784 35.7008 22.9C36.5021 22.2235 37.0016 21.2806 37 20.2449C37.0017 19.2106 36.5022 18.2682 35.7009 17.5898ZM27.6274 18.5286C27.5871 18.7808 27.4381 19.0034 27.222 19.1641C27.0037 19.3262 26.7262 19.4214 26.4143 19.4214C26.2126 19.4214 26.025 19.3817 25.8577 19.3089C25.6927 19.2365 25.5453 19.1313 25.4335 19.0034C25.2985 18.8518 25.0845 18.7617 24.8624 18.7617C24.6382 18.7617 24.4242 18.8518 24.2898 19.0034C24.1774 19.1313 24.0307 19.2365 23.8633 19.3089C23.6982 19.3817 23.5106 19.4214 23.3084 19.4214C23.1046 19.4214 22.9191 19.3817 22.7518 19.3089C22.5846 19.2365 22.4378 19.1313 22.3254 19.0034C22.1909 18.8518 21.9791 18.7617 21.7548 18.7617C21.5305 18.7617 21.3182 18.8518 21.1837 19.0034C21.0698 19.1313 20.9246 19.2365 20.7574 19.3089C20.5901 19.3817 20.4046 19.4214 20.2008 19.4214C19.9992 19.4214 19.8114 19.3817 19.6442 19.3089C19.477 19.2365 19.3323 19.1313 19.2199 19.0034C19.0855 18.8518 18.8714 18.7617 18.6473 18.7617C18.4225 18.7617 18.2106 18.8518 18.0757 19.0034C17.9638 19.1313 17.817 19.2365 17.6498 19.3089C17.4826 19.3817 17.297 19.4214 17.0954 19.4214C16.891 19.4214 16.7055 19.3817 16.5383 19.3089C16.371 19.2365 16.2242 19.1313 16.1124 19.0034C15.9774 18.8518 15.7655 18.7617 15.5414 18.7617C15.317 18.7617 15.1047 18.8518 14.9703 19.0034C14.8557 19.1313 14.7112 19.2365 14.5444 19.3089C14.3766 19.3817 14.1895 19.4214 13.9873 19.4214C13.7835 19.4214 13.598 19.3817 13.4308 19.3089C13.2635 19.2365 13.1189 19.1313 13.0042 19.0034C12.8698 18.8518 12.658 18.7617 12.4332 18.7617C12.209 18.7617 11.9971 18.8518 11.8627 19.0034C11.7503 19.1313 11.6035 19.2365 11.4362 19.3089C11.269 19.3817 11.0835 19.4214 10.8796 19.4214C10.6775 19.4214 10.4919 19.3817 10.3247 19.3089C10.1575 19.2365 10.0106 19.1313 9.89884 19.0034C9.76385 18.8518 9.55196 18.7617 9.32779 18.7617C9.10355 18.7617 8.88957 18.8518 8.75675 19.0034C8.64271 19.1313 8.49594 19.2365 8.33031 19.3089C8.16359 19.3817 7.97591 19.4214 7.77372 19.4214C7.56993 19.4214 7.38442 19.3817 7.2172 19.3089C7.04997 19.2365 6.9032 19.1313 6.79083 19.0034C6.65634 18.8518 6.44453 18.7617 6.22021 18.7617C5.99597 18.7617 5.78358 18.8518 5.64917 19.0034C5.5368 19.1313 5.39002 19.2365 5.22273 19.3089C5.05551 19.3817 4.87 19.4214 4.66621 19.4214C4.33978 19.4214 4.0505 19.3162 3.82785 19.1414C3.60795 18.9657 3.46486 18.7257 3.44441 18.4544C3.4181 18.1298 3.09168 17.8813 2.70824 17.8917C2.6862 17.8917 2.66791 17.8936 2.65765 17.8936H2.64313C2.30651 17.8899 2.00863 17.7742 1.78873 17.5898C1.56448 17.3996 1.4279 17.1441 1.4279 16.8542C1.4279 16.6675 1.48485 16.4968 1.58494 16.3465C1.68654 16.1963 1.83115 16.0666 2.00495 15.9755C2.18828 15.8754 2.31085 15.7096 2.33347 15.5248C2.35558 15.34 2.27435 15.1551 2.11732 15.0276C1.87046 14.8273 1.73763 14.5545 1.73763 14.2764C1.7398 14.0692 1.80918 13.8639 1.96028 13.6809L1.97055 13.6723C2.09044 13.5289 2.24371 13.4237 2.41469 13.3495C2.58625 13.2766 2.77602 13.2389 2.96753 13.2389C3.21215 13.2407 3.45474 13.2994 3.66923 13.4269L3.67732 13.4323L3.68325 13.4355C3.8483 13.5425 4.06077 13.5844 4.26672 13.5461C4.4049 13.522 4.52963 13.4633 4.62755 13.3786C4.67647 13.3354 4.71896 13.2853 4.75387 13.2283C4.85388 13.059 5.01092 12.9161 5.19859 12.8159C5.2658 12.7794 5.33676 12.7485 5.4104 12.7262C5.54699 12.6811 5.69166 12.657 5.8487 12.657C6.0509 12.657 6.2385 12.6984 6.40579 12.7708C6.57085 12.8431 6.71769 12.9488 6.83014 13.0744C6.96455 13.2265 7.17861 13.318 7.40277 13.318C7.62694 13.318 7.8394 13.2265 7.97382 13.0744C8.08619 12.9488 8.23296 12.8431 8.40026 12.7708C8.56532 12.6984 8.75248 12.657 8.95468 12.657C9.15847 12.657 9.34398 12.6984 9.5112 12.7708C9.67843 12.8431 9.82527 12.9488 9.93764 13.0744C10.0721 13.2265 10.2839 13.318 10.5087 13.318C10.7329 13.318 10.9469 13.2265 11.0814 13.0744C11.1938 12.9488 11.3384 12.8431 11.5057 12.7708C11.6729 12.6984 11.8584 12.657 12.0622 12.657C12.2644 12.657 12.4515 12.6984 12.6193 12.7708C12.7865 12.8431 12.9312 12.9488 13.0452 13.0744C13.1796 13.2265 13.392 13.318 13.6163 13.318C13.8405 13.318 14.0529 13.2265 14.1873 13.0744C14.2992 12.9488 14.446 12.8431 14.6132 12.7708C14.7804 12.6984 14.9659 12.657 15.1681 12.657C15.3719 12.657 15.5575 12.6984 15.7247 12.7708C15.8919 12.8431 16.0388 12.9488 16.1511 13.0744C16.2856 13.2265 16.498 13.318 16.7222 13.318C16.9464 13.318 17.1604 13.2265 17.2927 13.0744C17.4073 12.9488 17.5519 12.8431 17.7192 12.7708C17.8865 12.6984 18.0741 12.657 18.2758 12.657C18.4795 12.657 18.6656 12.6984 18.8323 12.7708C18.9995 12.8431 19.1447 12.9488 19.2586 13.0744C19.391 13.2265 19.6055 13.318 19.8298 13.318C20.054 13.318 20.2658 13.2265 20.4008 13.0744C20.5127 12.9488 20.6594 12.8431 20.8267 12.7708C20.9939 12.6984 21.1794 12.657 21.3838 12.657C21.5854 12.657 21.7709 12.6984 21.9382 12.7708C22.1054 12.8431 22.2523 12.9488 22.3646 13.0744C22.499 13.2265 22.7131 13.318 22.9373 13.318C22.9598 13.318 22.9824 13.3167 23.0045 13.3149L28.0517 18.0606C27.8312 18.1403 27.6645 18.3146 27.6274 18.5286ZM34.6916 22.0456C34.1447 22.5081 33.3983 22.7913 32.5648 22.7913C31.7325 22.7913 30.9844 22.5081 30.4375 22.0456C29.8928 21.583 29.5589 20.9511 29.5568 20.2449C29.5589 19.7337 29.7342 19.2589 30.0418 18.86C30.1542 18.7097 30.2887 18.57 30.4376 18.4439C30.5618 18.3387 30.6984 18.244 30.8436 18.1576C31.3308 17.8693 31.9223 17.7 32.5649 17.6982C33.3984 17.7 34.1448 17.9832 34.6917 18.4439C35.238 18.9069 35.5725 19.5402 35.5725 20.2449C35.5725 20.9511 35.238 21.583 34.6916 22.0456Z" fill="#4E2513"/>
</svg>
