<svg width="33" height="25" viewBox="0 0 33 25" fill="none" xmlns="http://www.w3.org/2000/svg">
<path d="M2.59963 0.5H17.5309L17.0784 5.92955C17.3587 12.5234 21.6031 17.2411 23.8654 17.2411H29.7474C30.6523 17.2411 31.1048 19.5034 31.1048 20.4084C31.1048 20.4084 31.5572 22.2182 31.5572 22.6707C31.5572 23.1231 21.3979 25.394 12.1013 23.1231H10.7439V24.0281C7.07715 24.6451 5.01081 24.809 1.24224 23.5756V19.9559C0.789761 19.5034 1.19296 14.8547 2.59963 11.8116C3.27939 10.1615 3.39206 8.78677 3.05209 5.47709L2.59963 0.5Z" fill="#4E2513"/>
<path d="M1.24224 19.9559C0.789761 19.5034 1.19296 14.8547 2.59963 11.8116C3.27939 10.1615 3.39206 8.78677 3.05209 5.47709L2.59963 0.5H17.5309L17.0784 5.92955C17.3587 12.5234 21.6031 17.2411 23.8654 17.2411C26.1277 17.2411 28.8425 17.2411 29.7474 17.2411C30.6523 17.2411 31.1048 19.5034 31.1048 20.4084M1.24224 19.9559C1.69471 20.4084 7.58504 20.8112 11.6489 20.4084C19.2472 22.3117 31.1048 21.3133 31.1048 20.4084M1.24224 19.9559V23.5756C5.01081 24.809 7.07715 24.6451 10.7439 24.0281V23.1231H12.1013C21.3979 25.394 31.5572 23.1231 31.5572 22.6707C31.5572 22.2182 31.1048 20.4084 31.1048 20.4084" stroke="#4E2513"/>
<path d="M0.160645 19.5034C4.37568 20.9351 6.81726 20.7382 11.198 20.0418C19.5045 22.9307 24.0248 22.9567 31.833 20.0418" stroke="#4E2513"/>
</svg>
