<svg width="29" height="27" viewBox="0 0 29 27" fill="none" xmlns="http://www.w3.org/2000/svg">
<path d="M14.4993 22.6192L7.47056 26.7468C7.16005 26.9394 6.83543 27.022 6.4967 26.9945C6.15796 26.967 5.86157 26.8569 5.60752 26.6643C5.35347 26.4716 5.15588 26.2311 5.01474 25.9428C4.8736 25.6544 4.84537 25.3308 4.93006 24.972L6.79309 17.1708L0.568862 11.9288C0.286584 11.6811 0.110443 11.3988 0.0404377 11.0818C-0.0295673 10.7648 -0.0086788 10.4555 0.103103 10.1539C0.214885 9.8523 0.384252 9.60464 0.611203 9.41092C0.838155 9.2172 1.14866 9.09337 1.54272 9.03944L9.75701 8.33774L12.9326 0.990623C13.0738 0.660416 13.2928 0.412759 13.5898 0.247656C13.8867 0.0825517 14.1899 0 14.4993 0C14.8087 0 15.1118 0.0825517 15.4088 0.247656C15.7057 0.412759 15.9248 0.660416 16.0659 0.990623L19.2415 8.33774L27.4558 9.03944C27.851 9.09447 28.1615 9.2183 28.3874 9.41092C28.6132 9.60354 28.7825 9.8512 28.8954 10.1539C29.0084 10.4566 29.0298 10.7664 28.9598 11.0834C28.8898 11.4004 28.7131 11.6822 28.4297 11.9288L22.2055 17.1708L24.0685 24.972C24.1532 25.3297 24.125 25.6533 23.9838 25.9428C23.8427 26.2322 23.6451 26.4727 23.391 26.6643C23.137 26.8558 22.8406 26.9659 22.5019 26.9945C22.1631 27.0231 21.8385 26.9405 21.528 26.7468L14.4993 22.6192Z" fill="#4E2513"/>
</svg>
