<svg width="25" height="24" viewBox="0 0 25 24" fill="none" xmlns="http://www.w3.org/2000/svg">
<path d="M10.0001 0C7.34791 0 4.80435 1.01144 2.92896 2.81181C1.05358 4.61217 0 7.054 0 9.6001C0 12.1462 1.05358 14.588 2.92896 16.3884C4.80435 18.1888 7.34791 19.2002 10.0001 19.2002C12.6523 19.2002 15.1959 18.1888 17.0712 16.3884C18.9466 14.588 20.0002 12.1462 20.0002 9.6001C20.0002 7.054 18.9466 4.61217 17.0712 2.81181C15.1959 1.01144 12.6523 0 10.0001 0Z" fill="#4E2513"/>
<path fill-rule="evenodd" clip-rule="evenodd" d="M24.6341 23.6486C24.3997 23.8736 24.0818 24 23.7503 24C23.4189 24 23.101 23.8736 22.8666 23.6486L18.4915 19.4486C18.2638 19.2223 18.1378 18.9191 18.1407 18.6045C18.1435 18.2899 18.275 17.9889 18.5067 17.7664C18.7385 17.5439 19.052 17.4177 19.3798 17.415C19.7075 17.4122 20.0233 17.5332 20.259 17.7518L24.6341 21.9518C24.8684 22.1769 25.0001 22.482 25.0001 22.8002C25.0001 23.1184 24.8684 23.4236 24.6341 23.6486Z" fill="#4E2513"/>
</svg>
