<svg width="23" height="24" viewBox="0 0 23 24" fill="none" xmlns="http://www.w3.org/2000/svg">
<path d="M21.3901 5.29469L17.3524 2.78686L10.7784 13.1429L14.8136 15.6483L21.3901 5.29469ZM10.1626 16.3273L10.0735 18.6802L12.179 17.5784L14.137 16.5564L10.2434 14.1368L10.1626 16.3273ZM22.4674 1.48474L20.3569 0.171895C20.1016 0.0134978 19.7932 -0.0381518 19.4995 0.0283021C19.2058 0.0947559 18.9507 0.273873 18.7905 0.526271L17.9573 1.83499L21.9925 4.342L22.8257 3.03493C23.159 2.50748 23.0007 1.81274 22.4674 1.48309V1.48474ZM19.1637 21.1155C19.1637 21.3422 18.9763 21.5276 18.7471 21.5276H2.91622C2.80573 21.5276 2.69977 21.4842 2.62164 21.4069C2.54351 21.3296 2.49962 21.2248 2.49962 21.1155V5.45705C2.49962 5.34776 2.54351 5.24295 2.62164 5.16567C2.69977 5.0884 2.80573 5.04498 2.91622 5.04498H13.9512L15.521 2.57259H2.91622C1.30813 2.57259 0 3.86648 0 5.45705V21.1155C0 22.7061 1.30813 24 2.91622 24H18.7471C20.3552 24 21.6634 22.7061 21.6634 21.1155V7.95993L19.1637 11.896V21.118V21.1155Z" fill="#F2ECDC"/>
</svg>
