<svg width="16" height="16" viewBox="0 0 16 16" fill="none" xmlns="http://www.w3.org/2000/svg">
<g clip-path="url(#clip0_492_16081)">
<path d="M3.625 16V13.3333M12.375 16V10.6667M12.375 2.66667V0M3.625 5.33333V0" stroke="#4E2513" stroke-width="1.5" stroke-linecap="round" stroke-linejoin="round"/>
<path d="M3.625 13.3333C2.8095 13.3333 2.40175 13.3333 2.08063 13.1982C1.86816 13.1089 1.67511 12.9779 1.51251 12.8127C1.34991 12.6475 1.22095 12.4514 1.133 12.2355C1 11.9093 1 11.4951 1 10.6667C1 9.83821 1 9.42399 1.133 9.09777C1.22095 8.88193 1.34991 8.68581 1.51251 8.52063C1.67511 8.35545 1.86816 8.22445 2.08063 8.1351C2.40175 7.99999 2.8095 7.99999 3.625 7.99999C4.4405 7.99999 4.84825 7.99999 5.16938 8.1351C5.38184 8.22445 5.57489 8.35545 5.73749 8.52063C5.90009 8.68581 6.02905 8.88193 6.117 9.09777C6.25 9.42399 6.25 9.83821 6.25 10.6667C6.25 11.4951 6.25 11.9093 6.117 12.2355C6.02905 12.4514 5.90009 12.6475 5.73749 12.8127C5.57489 12.9779 5.38184 13.1089 5.16938 13.1982C4.84825 13.3333 4.4405 13.3333 3.625 13.3333ZM12.375 7.99999C11.5595 7.99999 11.1517 7.99999 10.8306 7.86488C10.6182 7.77553 10.4251 7.64453 10.2625 7.47935C10.0999 7.31417 9.97095 7.11805 9.883 6.90221C9.75 6.57599 9.75 6.16177 9.75 5.33332C9.75 4.50488 9.75 4.09066 9.883 3.76443C9.97095 3.5486 10.0999 3.35248 10.2625 3.1873C10.4251 3.02212 10.6182 2.89111 10.8306 2.80177C11.1517 2.66666 11.5595 2.66666 12.375 2.66666C13.1905 2.66666 13.5982 2.66666 13.9194 2.80177C14.1318 2.89111 14.3249 3.02212 14.4875 3.1873C14.6501 3.35248 14.7791 3.5486 14.867 3.76443C15 4.09066 15 4.50488 15 5.33332C15 6.16177 15 6.57599 14.867 6.90221C14.7791 7.11805 14.6501 7.31417 14.4875 7.47935C14.3249 7.64453 14.1318 7.77553 13.9194 7.86488C13.5982 7.99999 13.1905 7.99999 12.375 7.99999Z" stroke="#4E2513" stroke-width="1.5"/>
</g>
<defs>
<clipPath id="clip0_492_16081">
<rect width="16" height="16" fill="white"/>
</clipPath>
</defs>
</svg>
