<svg width="21" height="18" viewBox="0 0 21 18" fill="none" xmlns="http://www.w3.org/2000/svg">
<path d="M20.2627 13.1924C19.9908 12.8878 19.6563 12.6522 19.2812 12.5136V12.5122C19.2812 12.5122 19.2809 12.5122 19.2806 12.5122C19.0501 11.8245 18.6629 10.7804 18.1666 9.57811C17.3633 7.63694 16.2765 5.29086 15.0984 3.40704C14.5069 2.46392 13.8947 1.63561 13.2663 1.02439C12.9513 0.718779 12.6321 0.467454 12.3022 0.28753C11.9722 0.108937 11.6285 0 11.2779 0H8.04397C7.71773 0 7.40642 0.0607548 7.1171 0.172078C6.60772 0.367741 6.16914 0.716026 5.78491 1.1459C5.20839 1.79328 4.74327 2.63118 4.32421 3.51694C3.90515 4.40404 3.53253 5.34271 3.16564 6.1919C2.74662 7.16058 2.51862 7.88583 2.39503 8.46052C2.34955 8.6705 2.31965 8.86071 2.29766 9.03416C2.26743 9.06559 2.23844 9.09767 2.21071 9.13144C2.0407 9.05738 1.86126 9.02251 1.68423 9.02251C1.45044 9.02251 1.21911 9.08326 1.00731 9.20248C0.796403 9.32027 0.606582 9.49648 0.459746 9.72454C0.269925 10.0209 0.175917 10.3668 0.175917 10.7073C0.175917 10.9961 0.243101 11.2823 0.37189 11.5373C0.303517 11.6227 0.244618 11.7145 0.194579 11.8129C0.0708343 12.0577 0 12.3415 0 12.6406C0 13.1053 0.170339 13.5287 0.442273 13.8329C0.647024 14.0637 0.914406 14.228 1.21288 14.2939C1.29068 14.5739 1.43293 14.8211 1.6182 15.0164C1.88554 15.2988 2.25119 15.4722 2.64827 15.4722C2.89485 15.4722 3.12955 15.4064 3.33438 15.2872C3.40304 15.2486 3.46866 15.2028 3.53031 15.1513C3.59167 15.2028 3.65762 15.2485 3.72596 15.2872C3.93165 15.4064 4.16573 15.4722 4.41203 15.4722C4.65742 15.4722 4.8924 15.4064 5.09843 15.2872C5.1668 15.2486 5.23271 15.2028 5.29407 15.1513C5.35543 15.2028 5.42134 15.2485 5.48972 15.2872C5.69447 15.4064 5.92949 15.4722 6.17484 15.4722C6.42114 15.4722 6.65616 15.4064 6.86124 15.2872C6.92933 15.2486 6.99553 15.2028 7.05656 15.1513C7.11792 15.2028 7.18412 15.2485 7.25221 15.2872C7.45851 15.4064 7.69198 15.4722 7.9386 15.4722C8.184 15.4722 8.41898 15.4064 8.625 15.2872C8.69334 15.2486 8.75929 15.2028 8.82065 15.1513C8.88201 15.2028 8.94792 15.2485 9.01625 15.2872C9.22105 15.4064 9.45607 15.4722 9.70265 15.4722C9.94805 15.4722 10.1827 15.4064 10.3878 15.2872C10.4571 15.2472 10.523 15.2018 10.5844 15.1513C10.6457 15.2028 10.7107 15.2485 10.7788 15.2872C10.9848 15.4064 11.2198 15.4722 11.4652 15.4722C11.7118 15.4722 11.9456 15.4064 12.1516 15.2872C12.2199 15.2486 12.2859 15.2028 12.3472 15.1513C12.4085 15.2028 12.4745 15.2485 12.5428 15.2872C12.7476 15.4064 12.9826 15.4722 13.2289 15.4722C13.4743 15.4722 13.7093 15.4064 13.9141 15.2872C13.9837 15.2472 14.0496 15.2018 14.111 15.1513C14.1723 15.2028 14.237 15.2485 14.3054 15.2872C14.5114 15.4064 14.7464 15.4722 14.9918 15.4722C15.3632 15.4722 15.7072 15.321 15.9675 15.0697C15.9663 15.1073 15.9651 15.1462 15.9651 15.1837C15.9651 15.9605 16.2477 16.6677 16.7024 17.175C17.1572 17.6838 17.7893 18.0014 18.4827 18C19.1771 18.0014 19.8088 17.6838 20.2626 17.175C20.7174 16.6676 21.0009 15.9605 21 15.1837C21.001 14.408 20.7175 13.7011 20.2627 13.1924ZM15.6804 13.8965C15.6575 14.0856 15.573 14.2526 15.4503 14.3731C15.3264 14.4947 15.1689 14.566 14.9919 14.566C14.8774 14.566 14.7709 14.5363 14.676 14.4817C14.5823 14.4274 14.4987 14.3485 14.4352 14.2526C14.3586 14.1389 14.2372 14.0713 14.1111 14.0713C13.9838 14.0713 13.8624 14.1389 13.7861 14.2526C13.7223 14.3485 13.639 14.4274 13.544 14.4817C13.4503 14.5363 13.3438 14.566 13.2291 14.566C13.1134 14.566 13.0081 14.5363 12.9132 14.4817C12.8183 14.4274 12.7349 14.3485 12.6712 14.2526C12.5948 14.1389 12.4746 14.0713 12.3473 14.0713C12.22 14.0713 12.0995 14.1389 12.0232 14.2526C11.9585 14.3485 11.8761 14.4274 11.7812 14.4817C11.6863 14.5363 11.581 14.566 11.4653 14.566C11.3509 14.566 11.2443 14.5363 11.1494 14.4817C11.0545 14.4274 10.9724 14.3485 10.9086 14.2526C10.8323 14.1389 10.7108 14.0713 10.5836 14.0713C10.456 14.0713 10.3358 14.1389 10.2592 14.2526C10.1957 14.3485 10.1124 14.4274 10.0174 14.4817C9.92254 14.5363 9.81721 14.566 9.70278 14.566C9.58678 14.566 9.4815 14.5363 9.38658 14.4817C9.29167 14.4274 9.20833 14.3485 9.14488 14.2526C9.06826 14.1389 8.948 14.0713 8.82077 14.0713C8.69346 14.0713 8.57295 14.1389 8.49667 14.2526C8.43161 14.3485 8.34958 14.4274 8.25492 14.4817C8.15968 14.5363 8.05349 14.566 7.93873 14.566C7.82306 14.566 7.71778 14.5363 7.62287 14.4817C7.52791 14.4274 7.44584 14.3485 7.38079 14.2526C7.3045 14.1389 7.18424 14.0713 7.05668 14.0713C6.92941 14.0713 6.80915 14.1389 6.73286 14.2526C6.66908 14.3485 6.58578 14.4274 6.49083 14.4817C6.39592 14.5363 6.29063 14.566 6.17493 14.566C6.0602 14.566 5.95488 14.5363 5.85997 14.4817C5.76506 14.4274 5.68171 14.3485 5.61826 14.2526C5.54164 14.1389 5.42138 14.0713 5.29415 14.0713C5.16688 14.0713 5.04543 14.1389 4.97005 14.2526C4.90532 14.3485 4.82202 14.4274 4.72801 14.4817C4.63339 14.5363 4.52687 14.566 4.41211 14.566C4.29644 14.566 4.19116 14.5363 4.09625 14.4817C4.00134 14.4274 3.91803 14.3485 3.85425 14.2526C3.77792 14.1389 3.65771 14.0713 3.53039 14.0713C3.40312 14.0713 3.28257 14.1389 3.20629 14.2526C3.14251 14.3485 3.0592 14.4274 2.96425 14.4817C2.86934 14.5363 2.76405 14.566 2.64839 14.566C2.46312 14.566 2.29893 14.4871 2.17257 14.356C2.04775 14.2242 1.96654 14.0443 1.95494 13.8408C1.94001 13.5973 1.75474 13.4109 1.53711 13.4188C1.5246 13.4188 1.51422 13.4202 1.5084 13.4202H1.50015C1.3091 13.4174 1.14003 13.3307 1.01522 13.1924C0.887951 13.0497 0.810431 12.8581 0.810431 12.6406C0.810431 12.5006 0.842751 12.3726 0.899558 12.2599C0.957226 12.1472 1.0393 12.0499 1.13794 11.9816C1.242 11.9065 1.31156 11.7822 1.3244 11.6436C1.33695 11.505 1.29085 11.3663 1.20172 11.2707C1.06161 11.1205 0.986224 10.9159 0.986224 10.7073C0.987455 10.5519 1.02683 10.3979 1.11259 10.2607L1.11842 10.2542C1.18646 10.1467 1.27346 10.0678 1.3705 10.0121C1.46787 9.95746 1.57558 9.92915 1.68427 9.92915C1.82311 9.93052 1.9608 9.97458 2.08254 10.0702L2.08713 10.0742L2.09049 10.0766C2.18417 10.1568 2.30476 10.1883 2.42165 10.1596C2.50008 10.1415 2.57087 10.0975 2.62645 10.034C2.65421 10.0015 2.67833 9.96398 2.69814 9.92125C2.75491 9.79424 2.84403 9.68705 2.95055 9.61193C2.9887 9.58458 3.02897 9.56136 3.07077 9.54466C3.14829 9.51084 3.2304 9.49271 3.31953 9.49271C3.43429 9.49271 3.54077 9.52378 3.63572 9.57811C3.7294 9.63235 3.81275 9.7116 3.87657 9.8058C3.95285 9.91988 4.07434 9.98853 4.20157 9.98853C4.32881 9.98853 4.44939 9.91988 4.52568 9.8058C4.58946 9.7116 4.67276 9.63235 4.76772 9.57811C4.8614 9.52378 4.96763 9.49271 5.08239 9.49271C5.19805 9.49271 5.30334 9.52378 5.39825 9.57811C5.49316 9.63235 5.57651 9.7116 5.64029 9.8058C5.71657 9.91988 5.83683 9.98853 5.96439 9.98853C6.09166 9.98853 6.21311 9.91988 6.28944 9.8058C6.35322 9.7116 6.43533 9.63235 6.53025 9.57811C6.62516 9.52378 6.73044 9.49271 6.84611 9.49271C6.96087 9.49271 7.06706 9.52378 7.1623 9.57811C7.25721 9.63235 7.33932 9.7116 7.40405 9.8058C7.48034 9.91988 7.60088 9.98853 7.72815 9.98853C7.85542 9.98853 7.97597 9.91988 8.05226 9.8058C8.11575 9.7116 8.19905 9.63235 8.29397 9.57811C8.38888 9.52378 8.49416 9.49271 8.60893 9.49271C8.72459 9.49271 8.82992 9.52378 8.92483 9.57811C9.01974 9.63235 9.10308 9.7116 9.16686 9.8058C9.24315 9.91988 9.36374 9.98853 9.49097 9.98853C9.61824 9.98853 9.73969 9.91988 9.81479 9.8058C9.8798 9.7116 9.96187 9.63235 10.0568 9.57811C10.1518 9.52378 10.2583 9.49271 10.3727 9.49271C10.4884 9.49271 10.594 9.52378 10.6886 9.57811C10.7835 9.63235 10.8659 9.7116 10.9306 9.8058C11.0057 9.91988 11.1275 9.98853 11.2547 9.98853C11.382 9.98853 11.5022 9.91988 11.5788 9.8058C11.6423 9.7116 11.7256 9.63235 11.8205 9.57811C11.9155 9.52378 12.0207 9.49271 12.1367 9.49271C12.2512 9.49271 12.3565 9.52378 12.4514 9.57811C12.5463 9.63235 12.6297 9.7116 12.6934 9.8058C12.7697 9.91988 12.8912 9.98853 13.0185 9.98853C13.0312 9.98853 13.0441 9.98752 13.0566 9.98614L15.9212 13.5454C15.7961 13.6052 15.7015 13.736 15.6804 13.8965ZM19.6898 16.5342C19.3794 16.8811 18.9558 17.0934 18.4827 17.0934C18.0103 17.0934 17.5858 16.8811 17.2754 16.5342C16.9662 16.1873 16.7767 15.7133 16.7755 15.1837C16.7767 14.8003 16.8762 14.4441 17.0508 14.145C17.1146 14.0323 17.1909 13.9275 17.2754 13.8329C17.3459 13.754 17.4234 13.683 17.5058 13.6182C17.7824 13.402 18.1181 13.275 18.4828 13.2736C18.9559 13.275 19.3795 13.4874 19.6899 13.8329C20 14.1802 20.1898 14.6551 20.1898 15.1837C20.1898 15.7133 20 16.1873 19.6898 16.5342Z" fill="#F2ECDC"/>
</svg>
