<svg width="31" height="24" viewBox="0 0 31 24" fill="none" xmlns="http://www.w3.org/2000/svg">
<g filter="url(#filter0_d_995_20579)">
<path d="M26.1925 11.7266C25.8946 11.4558 25.5283 11.2464 25.1175 11.1232V11.1219C25.1175 11.1219 25.1171 11.1219 25.1168 11.1219C24.8644 10.5107 24.4403 9.58254 23.8967 8.51387C23.0169 6.78839 21.8266 4.70298 20.5363 3.02848C19.8885 2.19015 19.218 1.45387 18.5297 0.910568C18.1848 0.638915 17.8351 0.415515 17.4738 0.255582C17.1124 0.0968326 16.736 0 16.352 0H12.8101C12.4528 0 12.1118 0.0540043 11.7949 0.152958C11.237 0.326881 10.7567 0.636467 10.3359 1.01858C9.70443 1.59402 9.19501 2.33883 8.73604 3.12617C8.27707 3.9147 7.86896 4.74907 7.46713 5.50391C7.0082 6.36496 6.75848 7.00963 6.62313 7.52047C6.57331 7.70711 6.54057 7.87618 6.51649 8.03036C6.48338 8.05831 6.45162 8.08682 6.42125 8.11684C6.23505 8.051 6.03852 8.02 5.84463 8.02C5.58858 8.02 5.33522 8.07401 5.10324 8.17998C4.87225 8.28468 4.66435 8.44131 4.50353 8.64403C4.29563 8.90749 4.19267 9.21495 4.19267 9.51756C4.19267 9.77433 4.26625 10.0287 4.40731 10.2554C4.33242 10.3313 4.26792 10.4129 4.21311 10.5003C4.07758 10.718 4 10.9702 4 11.2361C4 11.6491 4.18656 12.0255 4.48439 12.2959C4.70865 12.5011 5.00149 12.6471 5.32839 12.7057C5.41361 12.9546 5.5694 13.1743 5.77231 13.3479C6.06511 13.5989 6.46559 13.7531 6.90048 13.7531C7.17055 13.7531 7.4276 13.6945 7.65194 13.5886C7.72714 13.5543 7.79901 13.5136 7.86653 13.4678C7.93373 13.5136 8.00597 13.5543 8.08081 13.5886C8.30609 13.6945 8.56246 13.7531 8.83222 13.7531C9.10099 13.7531 9.35835 13.6945 9.58399 13.5886C9.65888 13.5543 9.73107 13.5136 9.79827 13.4678C9.86547 13.5136 9.93766 13.5543 10.0125 13.5886C10.2368 13.6945 10.4942 13.7531 10.7629 13.7531C11.0327 13.7531 11.2901 13.6945 11.5147 13.5886C11.5893 13.5543 11.6618 13.5136 11.7286 13.4678C11.7958 13.5136 11.8683 13.5543 11.9429 13.5886C12.1688 13.6945 12.4245 13.7531 12.6947 13.7531C12.9634 13.7531 13.2208 13.6945 13.4464 13.5886C13.5213 13.5543 13.5935 13.5136 13.6607 13.4678C13.7279 13.5136 13.8001 13.5543 13.8749 13.5886C14.0992 13.6945 14.3566 13.7531 14.6267 13.7531C14.8955 13.7531 15.1525 13.6945 15.3771 13.5886C15.453 13.5531 15.5252 13.5127 15.5924 13.4678C15.6596 13.5136 15.7308 13.5543 15.8053 13.5886C16.031 13.6945 16.2883 13.7531 16.5571 13.7531C16.8272 13.7531 17.0832 13.6945 17.3089 13.5886C17.3837 13.5543 17.4559 13.5136 17.5231 13.4678C17.5903 13.5136 17.6625 13.5543 17.7374 13.5886C17.9617 13.6945 18.219 13.7531 18.4888 13.7531C18.7576 13.7531 19.015 13.6945 19.2393 13.5886C19.3155 13.5531 19.3877 13.5127 19.4549 13.4678C19.5221 13.5136 19.5929 13.5543 19.6678 13.5886C19.8934 13.6945 20.1508 13.7531 20.4196 13.7531C20.8264 13.7531 21.2031 13.6187 21.4882 13.3953C21.4868 13.4287 21.4855 13.4633 21.4855 13.4966C21.4855 14.1871 21.7951 14.8157 22.2932 15.2667C22.7913 15.719 23.4835 16.0012 24.243 16C25.0034 16.0012 25.6953 15.719 26.1924 15.2667C26.6905 14.8157 27.001 14.1871 27 13.4966C27.0011 12.8071 26.6906 12.1788 26.1925 11.7266ZM21.1738 12.3524C21.1487 12.5206 21.0561 12.6689 20.9218 12.7761C20.7861 12.8841 20.6136 12.9476 20.4197 12.9476C20.2943 12.9476 20.1777 12.9211 20.0737 12.8726C19.9711 12.8243 19.8795 12.7542 19.81 12.6689C19.7261 12.5679 19.5931 12.5078 19.455 12.5078C19.3156 12.5078 19.1826 12.5679 19.0991 12.6689C19.0292 12.7542 18.938 12.8243 18.8339 12.8726C18.7313 12.9211 18.6147 12.9476 18.489 12.9476C18.3623 12.9476 18.247 12.9211 18.143 12.8726C18.0391 12.8243 17.9478 12.7542 17.8779 12.6689C17.7943 12.5679 17.6627 12.5078 17.5232 12.5078C17.3838 12.5078 17.2518 12.5679 17.1683 12.6689C17.0974 12.7542 17.0072 12.8243 16.9032 12.8726C16.7993 12.9211 16.684 12.9476 16.5572 12.9476C16.4319 12.9476 16.3152 12.9211 16.2112 12.8726C16.1073 12.8243 16.0174 12.7542 15.9475 12.6689C15.864 12.5679 15.7309 12.5078 15.5915 12.5078C15.4518 12.5078 15.3201 12.5679 15.2362 12.6689C15.1667 12.7542 15.0754 12.8243 14.9715 12.8726C14.8675 12.9211 14.7522 12.9476 14.6268 12.9476C14.4998 12.9476 14.3845 12.9211 14.2805 12.8726C14.1766 12.8243 14.0853 12.7542 14.0158 12.6689C13.9319 12.5679 13.8002 12.5078 13.6608 12.5078C13.5214 12.5078 13.3894 12.5679 13.3059 12.6689C13.2346 12.7542 13.1448 12.8243 13.0411 12.8726C12.9368 12.9211 12.8205 12.9476 12.6948 12.9476C12.5681 12.9476 12.4528 12.9211 12.3489 12.8726C12.2449 12.8243 12.155 12.7542 12.0837 12.6689C12.0002 12.5679 11.8685 12.5078 11.7287 12.5078C11.5894 12.5078 11.4576 12.5679 11.3741 12.6689C11.3042 12.7542 11.213 12.8243 11.109 12.8726C11.0051 12.9211 10.8897 12.9476 10.763 12.9476C10.6374 12.9476 10.522 12.9211 10.4181 12.8726C10.3141 12.8243 10.2228 12.7542 10.1533 12.6689C10.0694 12.5679 9.93771 12.5078 9.79836 12.5078C9.65897 12.5078 9.52595 12.5679 9.44338 12.6689C9.3725 12.7542 9.28126 12.8243 9.1783 12.8726C9.07466 12.9211 8.958 12.9476 8.83231 12.9476C8.70563 12.9476 8.59031 12.9211 8.48636 12.8726C8.38242 12.8243 8.29118 12.7542 8.22132 12.6689C8.13772 12.5679 8.00606 12.5078 7.86662 12.5078C7.72723 12.5078 7.5952 12.5679 7.51165 12.6689C7.44179 12.7542 7.35056 12.8243 7.24656 12.8726C7.14261 12.9211 7.0273 12.9476 6.90062 12.9476C6.6977 12.9476 6.51788 12.8775 6.37948 12.7609C6.24278 12.6438 6.15383 12.4838 6.14112 12.3029C6.12477 12.0865 5.92186 11.9208 5.6835 11.9278C5.6698 11.9278 5.65843 11.929 5.65205 11.929H5.64302C5.43378 11.9266 5.24861 11.8495 5.11191 11.7266C4.97252 11.5997 4.88761 11.4294 4.88761 11.2361C4.88761 11.1117 4.92301 10.9979 4.98523 10.8977C5.04839 10.7975 5.13828 10.711 5.24632 10.6503C5.36028 10.5836 5.43647 10.4731 5.45053 10.3499C5.46428 10.2266 5.41379 10.1034 5.31617 10.0184C5.16272 9.88487 5.08015 9.70303 5.08015 9.5176C5.0815 9.37949 5.12462 9.24261 5.21856 9.12061L5.22493 9.11486C5.29946 9.01925 5.39474 8.94913 5.50103 8.89965C5.60767 8.85108 5.72564 8.82591 5.84468 8.82591C5.99674 8.82713 6.14754 8.86629 6.28087 8.95125L6.2859 8.95488L6.28959 8.957C6.39219 9.0283 6.52426 9.05624 6.65229 9.03075C6.73818 9.01468 6.81571 8.97552 6.87658 8.91907C6.907 8.89023 6.93341 8.85687 6.95511 8.81889C7.01728 8.70599 7.11489 8.61071 7.23156 8.54394C7.27333 8.51963 7.31745 8.49899 7.36322 8.48414C7.44813 8.45408 7.53806 8.43797 7.63568 8.43797C7.76137 8.43797 7.87799 8.46558 7.98198 8.51387C8.08458 8.56209 8.17586 8.63253 8.24576 8.71627C8.32932 8.81767 8.46238 8.87869 8.60172 8.87869C8.74107 8.87869 8.87314 8.81767 8.9567 8.71627C9.02655 8.63253 9.11779 8.56209 9.22178 8.51387C9.32439 8.46558 9.44073 8.43797 9.56643 8.43797C9.69311 8.43797 9.80842 8.46558 9.91237 8.51387C10.0163 8.56209 10.1076 8.63253 10.1775 8.71627C10.261 8.81767 10.3927 8.87869 10.5324 8.87869C10.6718 8.87869 10.8048 8.81767 10.8884 8.71627C10.9583 8.63253 11.0482 8.56209 11.1522 8.51387C11.2561 8.46558 11.3714 8.43797 11.4981 8.43797C11.6238 8.43797 11.7401 8.46558 11.8444 8.51387C11.9484 8.56209 12.0383 8.63253 12.1092 8.71627C12.1927 8.81767 12.3248 8.87869 12.4642 8.87869C12.6036 8.87869 12.7356 8.81767 12.8191 8.71627C12.8887 8.63253 12.9799 8.56209 13.0839 8.51387C13.1878 8.46558 13.3031 8.43797 13.4288 8.43797C13.5555 8.43797 13.6709 8.46558 13.7748 8.51387C13.8788 8.56209 13.97 8.63253 14.0399 8.71627C14.1235 8.81767 14.2555 8.87869 14.3949 8.87869C14.5343 8.87869 14.6673 8.81767 14.7495 8.71627C14.8207 8.63253 14.9106 8.56209 15.0146 8.51387C15.1186 8.46558 15.2353 8.43797 15.3606 8.43797C15.4873 8.43797 15.6029 8.46558 15.7065 8.51387C15.8105 8.56209 15.9007 8.63253 15.9716 8.71627C16.0538 8.81767 16.1872 8.87869 16.3266 8.87869C16.466 8.87869 16.5977 8.81767 16.6816 8.71627C16.7511 8.63253 16.8424 8.56209 16.9463 8.51387C17.0503 8.46558 17.1656 8.43797 17.2926 8.43797C17.4179 8.43797 17.5333 8.46558 17.6373 8.51387C17.7412 8.56209 17.8325 8.63253 17.9023 8.71627C17.9859 8.81767 18.119 8.87869 18.2583 8.87869C18.2723 8.87869 18.2864 8.87779 18.3001 8.87657L21.4375 12.0404C21.3005 12.0935 21.1968 12.2097 21.1738 12.3524ZM25.5651 14.697C25.2251 15.0054 24.7611 15.1942 24.243 15.1942C23.7256 15.1942 23.2606 15.0054 22.9206 14.697C22.582 14.3887 22.3745 13.9674 22.3731 13.4966C22.3745 13.1558 22.4834 12.8392 22.6746 12.5733C22.7445 12.4732 22.8281 12.38 22.9207 12.2959C22.9979 12.2258 23.0828 12.1627 23.173 12.105C23.4759 11.9129 23.8436 11.8 24.243 11.7988C24.7612 11.8 25.2251 11.9888 25.5651 12.2959C25.9047 12.6046 26.1126 13.0268 26.1126 13.4966C26.1126 13.9674 25.9047 14.3887 25.5651 14.697Z" fill="#F2ECDC"/>
</g>
<defs>
<filter id="filter0_d_995_20579" x="0" y="0" width="31" height="24" filterUnits="userSpaceOnUse" color-interpolation-filters="sRGB">
<feFlood flood-opacity="0" result="BackgroundImageFix"/>
<feColorMatrix in="SourceAlpha" type="matrix" values="0 0 0 0 0 0 0 0 0 0 0 0 0 0 0 0 0 0 127 0" result="hardAlpha"/>
<feOffset dy="4"/>
<feGaussianBlur stdDeviation="2"/>
<feComposite in2="hardAlpha" operator="out"/>
<feColorMatrix type="matrix" values="0 0 0 0 0 0 0 0 0 0 0 0 0 0 0 0 0 0 0.25 0"/>
<feBlend mode="normal" in2="BackgroundImageFix" result="effect1_dropShadow_995_20579"/>
<feBlend mode="normal" in="SourceGraphic" in2="effect1_dropShadow_995_20579" result="shape"/>
</filter>
</defs>
</svg>
