<svg width="125" height="130" viewBox="0 0 125 130" fill="none" xmlns="http://www.w3.org/2000/svg">
<path d="M49.535 2.05309e-05C42.6137 0.00915442 35.9914 0.713479 30.5581 2.01404C23.1324 3.7916 18.1666 6.53278 16.5 10.1013C26.9295 36.0847 22.5168 55.7586 16.7616 81.9911C19.2505 82.4072 22.3638 82.7741 25.886 83.0933C27.6449 70.8234 37.5054 61.2257 50.3877 55.7312L52.2842 54.9223L54.4552 55.4615C58.1335 56.3724 63.0417 57.0239 68.6232 57.4202C68.4169 56.0527 68.2471 54.6835 68.114 53.313C58.1031 48.8648 45.3484 48.9993 33.8565 50.9821L31.5066 46.439C36.4769 45.5814 41.8587 45.0139 47.3236 44.9481C54.2485 44.8644 61.307 45.5984 67.8119 47.5883C67.8044 45.8207 67.8779 44.0926 68.0595 42.4188C68.1857 41.2492 68.3699 40.1084 68.5951 38.9936C58.6453 33.7492 48.7281 34.0943 37.0173 35.2117L35.6849 30.5331C38.8501 30.2312 42.1111 29.9911 45.4271 29.9069C46.0484 29.8912 46.6706 29.8795 47.2959 29.8752C54.956 29.825 62.8162 30.7049 70.2023 33.681C71.3016 31.1083 72.8406 28.7786 74.9843 26.7753C63.3698 19.6407 51.691 19.0906 38.4183 19.2982L38.1984 14.5648C39.1421 14.55 40.0875 14.5429 41.0434 14.5409C41.9994 14.5389 42.965 14.5417 43.9294 14.5569C56.0659 14.7482 68.862 16.4157 80.3719 23.1752C84.938 21.0673 90.9817 20.0646 97.961 20.4559C96.3032 14.8314 91.7521 10.5512 85.4974 7.3183C78.1627 3.52722 68.38 1.21762 58.3991 0.372481C55.4643 0.122485 52.5016 -0.001838 49.535 2.05309e-05ZM53.6579 60.3301C43.0121 65.3416 34.6502 73.9878 33.8974 85.3686C48.8526 88.4006 70.3887 89.4302 108.5 85.0832C108.014 74.29 103.639 66.8332 97.5895 62.1617C81.8656 63.1215 65.4506 62.7836 53.6579 60.3301Z" fill="#4E2513"/>
<path d="M30.5581 2.01404C35.9914 0.713479 42.6137 0.00915442 49.535 2.05309e-05C52.5016 -0.001838 55.4643 0.122485 58.3991 0.372481C68.38 1.21762 78.1627 3.52722 85.4974 7.3183C91.7521 10.5512 96.3032 14.8314 97.961 20.4559C90.9817 20.0646 84.938 21.0673 80.3719 23.1752C68.862 16.4157 56.0659 14.7482 43.9294 14.5569C42.965 14.5417 41.9994 14.5389 41.0434 14.5409C40.0875 14.5429 39.1421 14.55 38.1984 14.5648L38.4183 19.2982C51.691 19.0906 63.3698 19.6407 74.9843 26.7753C72.8406 28.7786 71.3016 31.1083 70.2023 33.681C62.8162 30.7049 54.956 29.825 47.2959 29.8752C46.6706 29.8795 46.0484 29.8912 45.4271 29.9069C42.1111 29.9911 38.8501 30.2312 35.6849 30.5331L37.0173 35.2117C48.7281 34.0943 58.6453 33.7492 68.5951 38.9936C68.3699 40.1084 68.1857 41.2492 68.0595 42.4188C67.8779 44.0926 67.8044 45.8207 67.8119 47.5883C61.307 45.5984 54.2485 44.8644 47.3236 44.9481C41.8587 45.0139 36.4769 45.5814 31.5066 46.439L33.8565 50.9821C45.3484 48.9993 58.1031 48.8648 68.114 53.313C68.2471 54.6835 68.4169 56.0527 68.6232 57.4202C63.0417 57.0239 58.1335 56.3724 54.4552 55.4615L52.2842 54.9223L50.3877 55.7312C37.5054 61.2257 27.6449 70.8234 25.886 83.0933C22.3638 82.7741 19.2505 82.4072 16.7616 81.9911L16.8628 81.5264C22.5677 55.5258 26.8678 35.931 16.5 10.1013C18.1666 6.53278 23.1324 3.7916 30.5581 2.01404Z" fill="#4E2513"/>
<path d="M33.8974 85.3686C34.6502 73.9878 43.0121 65.3416 53.6579 60.3301C65.4506 62.7836 81.8656 63.1215 97.5895 62.1617C103.639 66.8332 108.014 74.29 108.5 85.0832C70.3887 89.4302 48.8526 88.4006 33.8974 85.3686Z" fill="#4E2513"/>
<path d="M8.47703 101.72C8.69036 101.72 8.91703 101.733 9.15703 101.76C9.41037 101.787 9.65036 101.827 9.87703 101.88C10.117 101.92 10.3304 101.967 10.517 102.02C10.717 102.06 10.8704 102.107 10.977 102.16V104.38H10.797C10.797 103.74 10.577 103.24 10.137 102.88C9.69703 102.507 9.1637 102.32 8.53703 102.32C7.8037 102.32 7.21036 102.553 6.75703 103.02C6.3037 103.473 6.07703 104.007 6.07703 104.62C6.07703 104.873 6.13036 105.173 6.23703 105.52C6.35703 105.853 6.57036 106.167 6.87703 106.46L10.817 110.1C11.217 110.473 11.4837 110.873 11.617 111.3C11.7504 111.727 11.817 112.14 11.817 112.54C11.817 113.647 11.477 114.547 10.797 115.24C10.1304 115.933 9.2237 116.28 8.07703 116.28C7.75703 116.28 7.37703 116.247 6.93703 116.18C6.51036 116.113 6.09036 116 5.67703 115.84C5.27703 115.667 4.9437 115.447 4.67703 115.18C4.63703 114.967 4.61703 114.7 4.61703 114.38C4.61703 114.06 4.6437 113.727 4.69703 113.38C4.75036 113.02 4.8237 112.693 4.91703 112.4H5.09703C5.03036 113.08 5.11703 113.673 5.35703 114.18C5.59703 114.687 5.9437 115.073 6.39703 115.34C6.8637 115.593 7.39036 115.707 7.97703 115.68C8.71036 115.64 9.33703 115.387 9.85703 114.92C10.3904 114.44 10.657 113.8 10.657 113C10.657 112.613 10.5904 112.267 10.457 111.96C10.3237 111.64 10.1304 111.367 9.87703 111.14L6.03703 107.58C5.63703 107.207 5.35703 106.8 5.19703 106.36C5.03703 105.907 4.95703 105.487 4.95703 105.1C4.95703 104.54 5.09036 104 5.35703 103.48C5.6237 102.96 6.01703 102.54 6.53703 102.22C7.07036 101.887 7.71703 101.72 8.47703 101.72ZM10.977 101.92V102.34H9.45703V101.92H10.977ZM18.5692 109.3L23.7892 114.98C24.0159 115.247 24.2559 115.447 24.5092 115.58C24.7626 115.713 25.1026 115.787 25.5292 115.8V116H24.7892C24.6292 116 24.4292 115.993 24.1892 115.98C23.9626 115.953 23.7092 115.907 23.4292 115.84C23.1626 115.76 22.8892 115.647 22.6092 115.5C22.3426 115.34 22.0892 115.127 21.8492 114.86C21.8492 114.86 21.7426 114.747 21.5292 114.52C21.3292 114.28 21.0626 113.98 20.7292 113.62C20.3959 113.247 20.0359 112.86 19.6492 112.46C19.2759 112.047 18.9226 111.66 18.5892 111.3C18.2559 110.927 17.9826 110.627 17.7692 110.4C17.5559 110.16 17.4492 110.04 17.4492 110.04L18.5692 109.3ZM23.9092 104.14L18.3892 110.04H17.4492L22.4692 104.14H23.9092ZM25.2092 104V104.2H25.1292C24.7159 104.2 24.3292 104.267 23.9692 104.4C23.6226 104.533 23.3359 104.733 23.1092 105L21.7492 104.98C21.8959 104.793 21.9159 104.62 21.8092 104.46C21.7159 104.287 21.5492 104.2 21.3092 104.2H21.1292V104H25.1292H25.2092ZM16.7492 104V116H15.4692V104H16.7492ZM15.5092 114.72V116H14.0492V115.8C14.0492 115.8 14.0892 115.8 14.1692 115.8C14.2492 115.8 14.2892 115.8 14.2892 115.8C14.6092 115.8 14.8826 115.693 15.1092 115.48C15.3359 115.267 15.4559 115.013 15.4692 114.72H15.5092ZM16.6892 114.72H16.7492C16.7492 115.013 16.8626 115.267 17.0892 115.48C17.3159 115.693 17.5959 115.8 17.9292 115.8C17.9292 115.8 17.9626 115.8 18.0292 115.8C18.1092 115.8 18.1492 115.8 18.1492 115.8V116H16.6892V114.72ZM16.6892 105.28V104H18.1492V104.2C18.1492 104.2 18.1092 104.2 18.0292 104.2C17.9626 104.2 17.9226 104.2 17.9092 104.2C17.5892 104.2 17.3159 104.307 17.0892 104.52C16.8626 104.72 16.7492 104.973 16.7492 105.28H16.6892ZM15.5092 105.28H15.4692C15.4559 104.973 15.3359 104.72 15.1092 104.52C14.8826 104.307 14.6092 104.2 14.2892 104.2C14.2892 104.2 14.2492 104.2 14.1692 104.2C14.0892 104.2 14.0492 104.2 14.0492 104.2V104H15.5092V105.28ZM32.4666 103.72C33.3999 103.72 34.2732 103.873 35.0866 104.18C35.9132 104.473 36.6332 104.9 37.2466 105.46C37.8732 106.02 38.3599 106.687 38.7066 107.46C39.0532 108.22 39.2266 109.067 39.2266 110C39.2266 110.933 39.0532 111.787 38.7066 112.56C38.3599 113.32 37.8732 113.98 37.2466 114.54C36.6332 115.1 35.9132 115.533 35.0866 115.84C34.2732 116.133 33.3999 116.28 32.4666 116.28C31.5332 116.28 30.6599 116.133 29.8466 115.84C29.0332 115.533 28.3132 115.1 27.6866 114.54C27.0732 113.98 26.5932 113.32 26.2466 112.56C25.8999 111.787 25.7266 110.933 25.7266 110C25.7266 109.067 25.8999 108.22 26.2466 107.46C26.5932 106.687 27.0732 106.02 27.6866 105.46C28.3132 104.9 29.0332 104.473 29.8466 104.18C30.6599 103.873 31.5332 103.72 32.4666 103.72ZM32.4666 115.68C33.4532 115.68 34.3466 115.44 35.1466 114.96C35.9466 114.48 36.5799 113.813 37.0466 112.96C37.5132 112.107 37.7466 111.12 37.7466 110C37.7466 108.867 37.5132 107.88 37.0466 107.04C36.5799 106.187 35.9466 105.52 35.1466 105.04C34.3466 104.56 33.4532 104.32 32.4666 104.32C31.4932 104.32 30.6066 104.56 29.8066 105.04C29.0066 105.52 28.3732 106.187 27.9066 107.04C27.4399 107.88 27.2066 108.867 27.2066 110C27.2066 111.12 27.4399 112.107 27.9066 112.96C28.3732 113.813 29.0066 114.48 29.8066 114.96C30.6066 115.44 31.4932 115.68 32.4666 115.68ZM32.3466 102.58C32.6266 102.273 32.9066 101.973 33.1866 101.68C33.4666 101.373 33.7466 101.08 34.0266 100.8C34.3199 100.507 34.6066 100.227 34.8866 99.96C35.0332 100.12 35.1799 100.287 35.3266 100.46C35.4732 100.633 35.5999 100.82 35.7066 101.02C35.3466 101.22 34.9866 101.42 34.6266 101.62C34.2666 101.82 33.9066 102.013 33.5466 102.2C33.1999 102.373 32.8466 102.547 32.4866 102.72L32.3466 102.58ZM44.8948 103.72C45.2682 103.72 45.5948 103.733 45.8748 103.76C46.1548 103.787 46.3948 103.82 46.5948 103.86C46.8082 103.887 46.9882 103.927 47.1348 103.98C47.2948 104.02 47.4348 104.06 47.5548 104.1L47.5748 106.08H47.3348C47.3348 105.533 47.1482 105.107 46.7748 104.8C46.4015 104.48 45.8215 104.32 45.0348 104.32C44.3682 104.32 43.7948 104.507 43.3148 104.88C42.8482 105.24 42.6215 105.687 42.6348 106.22C42.6348 106.393 42.6548 106.573 42.6948 106.76C42.7482 106.933 42.8282 107.107 42.9348 107.28C43.0548 107.453 43.2148 107.627 43.4148 107.8L47.4548 110.92C47.7615 111.173 47.9882 111.5 48.1348 111.9C48.2815 112.287 48.3615 112.673 48.3748 113.06C48.3882 113.647 48.2348 114.187 47.9148 114.68C47.5948 115.173 47.1615 115.567 46.6148 115.86C46.0815 116.14 45.4882 116.28 44.8348 116.28C44.4482 116.28 44.0282 116.247 43.5748 116.18C43.1348 116.113 42.7215 116.013 42.3348 115.88C41.9482 115.733 41.6282 115.553 41.3748 115.34C41.3348 115.153 41.3148 114.92 41.3148 114.64C41.3148 114.347 41.3348 114.04 41.3748 113.72C41.4282 113.4 41.4948 113.113 41.5748 112.86H41.8148C41.7615 113.46 41.8482 113.973 42.0748 114.4C42.3015 114.827 42.6348 115.153 43.0748 115.38C43.5148 115.593 44.0282 115.693 44.6148 115.68C45.4415 115.653 46.0882 115.447 46.5548 115.06C47.0348 114.66 47.2748 114.133 47.2748 113.48C47.2748 113.16 47.2148 112.873 47.0948 112.62C46.9882 112.353 46.8082 112.107 46.5548 111.88L42.5548 108.8C42.1815 108.48 41.9282 108.127 41.7948 107.74C41.6615 107.353 41.5948 106.987 41.5948 106.64C41.5948 106.093 41.7415 105.6 42.0348 105.16C42.3282 104.72 42.7215 104.373 43.2148 104.12C43.7215 103.853 44.2815 103.72 44.8948 103.72ZM47.5348 103.9L47.5548 104.26H46.1348V103.9H47.5348ZM55.9931 116.28L50.4931 104.12H52.0731L56.3331 114.5L55.9931 116.28ZM55.9931 116.28L55.8531 114.9L60.4331 104.06H61.6931L56.9531 114.22C56.9531 114.22 56.9131 114.3 56.8331 114.46C56.7665 114.62 56.6798 114.82 56.5731 115.06C56.4798 115.287 56.3931 115.513 56.3131 115.74C56.2331 115.967 56.1865 116.147 56.1731 116.28H55.9931ZM59.8531 105.46C59.9998 105.06 59.9798 104.753 59.7931 104.54C59.6065 104.313 59.3931 104.2 59.1531 104.2H59.0131V104H62.8131V104.2C62.8131 104.2 62.7865 104.2 62.7331 104.2C62.6798 104.2 62.6531 104.2 62.6531 104.2C62.3731 104.2 62.0865 104.3 61.7931 104.5C61.4998 104.687 61.2465 105.007 61.0331 105.46H59.8531ZM52.6131 105.46H51.0931C50.8931 105.007 50.6465 104.687 50.3531 104.5C50.0598 104.3 49.7798 104.2 49.5131 104.2C49.5131 104.2 49.4865 104.2 49.4331 104.2C49.3798 104.2 49.3531 104.2 49.3531 104.2V104H53.4531V104.2H53.2931C53.0665 104.2 52.8598 104.313 52.6731 104.54C52.4998 104.753 52.4798 105.06 52.6131 105.46ZM66.5348 104V116H65.2548V104H66.5348ZM71.9148 115.38L71.8748 116H66.4948V115.38H71.9148ZM70.9748 109.7V110.3H66.4948V109.7H70.9748ZM71.8948 104V104.62H66.4948V104H71.8948ZM73.0348 113.14L71.9348 116H68.8948L69.5748 115.38C70.2415 115.38 70.7748 115.287 71.1748 115.1C71.5882 114.9 71.9215 114.633 72.1748 114.3C72.4282 113.953 72.6482 113.567 72.8348 113.14H73.0348ZM70.9748 110.26V111.4H70.7548V111.14C70.7548 110.913 70.6882 110.72 70.5548 110.56C70.4215 110.387 70.2148 110.3 69.9348 110.3V110.26H70.9748ZM70.9748 108.6V109.74H69.9348V109.7C70.2148 109.7 70.4215 109.62 70.5548 109.46C70.6882 109.287 70.7548 109.087 70.7548 108.86V108.6H70.9748ZM71.8948 104.56V105.94H71.6748V105.64C71.6748 105.36 71.5815 105.12 71.3948 104.92C71.2215 104.72 70.9815 104.62 70.6748 104.62V104.56H71.8948ZM71.8948 103.68V104.2L69.6148 104C70.0282 104 70.4682 103.967 70.9348 103.9C71.4015 103.82 71.7215 103.747 71.8948 103.68ZM65.2948 114.72L65.5548 116H63.8148V115.8C63.8148 115.8 63.8615 115.8 63.9548 115.8C64.0482 115.8 64.0948 115.8 64.0948 115.8C64.4282 115.8 64.7015 115.693 64.9148 115.48C65.1282 115.267 65.2415 115.013 65.2548 114.72H65.2948ZM65.2948 105.26H65.2548C65.2415 104.953 65.1282 104.7 64.9148 104.5C64.7015 104.3 64.4282 104.2 64.0948 104.2C64.0948 104.2 64.0482 104.2 63.9548 104.2C63.8615 104.2 63.8148 104.2 63.8148 104.2V104H65.5548L65.2948 105.26ZM77.4375 104V116H76.1775V104H77.4375ZM76.2375 114.72V116H74.5375V115.8C74.5375 115.8 74.5842 115.8 74.6775 115.8C74.7708 115.8 74.8175 115.8 74.8175 115.8C75.1908 115.8 75.5042 115.693 75.7575 115.48C76.0242 115.267 76.1642 115.013 76.1775 114.72H76.2375ZM77.3775 114.72H77.4375C77.4508 115.013 77.5842 115.267 77.8375 115.48C78.1042 115.693 78.4242 115.8 78.7975 115.8C78.7975 115.8 78.8375 115.8 78.9175 115.8C79.0108 115.8 79.0575 115.8 79.0575 115.8L79.0775 116H77.3775V114.72ZM77.3775 105.28V104H79.0775L79.0575 104.2C79.0575 104.2 79.0108 104.2 78.9175 104.2C78.8375 104.2 78.7975 104.2 78.7975 104.2C78.4242 104.2 78.1042 104.307 77.8375 104.52C77.5842 104.72 77.4508 104.973 77.4375 105.28H77.3775ZM76.2375 105.28H76.1775C76.1642 104.973 76.0242 104.72 75.7575 104.52C75.5042 104.307 75.1908 104.2 74.8175 104.2C74.8042 104.2 74.7508 104.2 74.6575 104.2C74.5775 104.2 74.5375 104.2 74.5375 104.2V104H76.2375V105.28ZM82.3163 103.7L93.3963 114.14L93.5963 116.28L82.5163 105.78L82.3163 103.7ZM82.3563 114.76V116H80.8563V115.8C80.8563 115.8 80.9096 115.8 81.0163 115.8C81.1363 115.8 81.1963 115.8 81.1963 115.8C81.5029 115.8 81.7629 115.7 81.9763 115.5C82.1896 115.3 82.2963 115.053 82.2963 114.76H82.3563ZM83.1963 114.76C83.1963 115.053 83.3029 115.3 83.5163 115.5C83.7429 115.7 84.0029 115.8 84.2963 115.8C84.2963 115.8 84.3496 115.8 84.4563 115.8C84.5763 115.8 84.6363 115.8 84.6363 115.8V116H83.1363V114.76H83.1963ZM82.3163 103.7L83.1763 104.82L83.1963 116H82.2963V106.2C82.2963 105.52 82.2629 104.933 82.1963 104.44C82.1429 103.947 82.1163 103.7 82.1163 103.7H82.3163ZM93.5963 104V113.72C93.5963 114.147 93.6096 114.56 93.6363 114.96C93.6629 115.347 93.6896 115.667 93.7163 115.92C93.7563 116.16 93.7763 116.28 93.7763 116.28H93.5963L92.7163 115.22V104H93.5963ZM93.5363 105.24V104H95.0363V104.2C95.0363 104.2 94.9763 104.2 94.8563 104.2C94.7496 104.2 94.6963 104.2 94.6963 104.2C94.4029 104.2 94.1429 104.3 93.9163 104.5C93.7029 104.7 93.5963 104.947 93.5963 105.24H93.5363ZM92.7163 105.24C92.7029 104.947 92.5896 104.7 92.3763 104.5C92.1629 104.3 91.9029 104.2 91.5963 104.2C91.5963 104.2 91.5363 104.2 91.4163 104.2C91.3096 104.2 91.2563 104.2 91.2563 104.2V104H92.7563V105.24H92.7163ZM102.462 103.72L107.962 115.88H106.382L102.122 105.5L102.462 103.72ZM98.6022 114.54C98.4555 114.94 98.4755 115.253 98.6622 115.48C98.8489 115.693 99.0622 115.8 99.3022 115.8H99.4622V116H95.6422V115.8C95.6422 115.8 95.6689 115.8 95.7222 115.8C95.7755 115.8 95.8022 115.8 95.8022 115.8C96.0822 115.8 96.3689 115.707 96.6622 115.52C96.9555 115.32 97.2089 114.993 97.4222 114.54H98.6022ZM102.462 103.72L102.602 105.1L98.0222 115.94H96.7622L101.502 105.78C101.502 105.78 101.536 105.7 101.602 105.54C101.682 105.38 101.769 105.187 101.862 104.96C101.969 104.72 102.062 104.487 102.142 104.26C102.222 104.033 102.269 103.853 102.282 103.72H102.462ZM104.822 111.34V111.94H99.5222V111.34H104.822ZM105.842 114.54H107.362C107.562 114.993 107.809 115.32 108.102 115.52C108.396 115.707 108.676 115.8 108.942 115.8C108.942 115.8 108.969 115.8 109.022 115.8C109.076 115.8 109.102 115.8 109.102 115.8V116H105.002V115.8H105.162C105.389 115.8 105.596 115.693 105.782 115.48C105.969 115.253 105.989 114.94 105.842 114.54ZM112.544 104H115.124C115.751 104 116.311 104.073 116.804 104.22C117.311 104.367 117.737 104.58 118.084 104.86C118.444 105.14 118.717 105.48 118.904 105.88C119.091 106.28 119.184 106.733 119.184 107.24C119.184 107.8 119.051 108.32 118.784 108.8C118.517 109.28 118.144 109.673 117.664 109.98C117.197 110.287 116.664 110.473 116.064 110.54C116.291 110.633 116.551 110.84 116.844 111.16C117.151 111.48 117.411 111.793 117.624 112.1C117.624 112.1 117.711 112.22 117.884 112.46C118.057 112.687 118.277 112.973 118.544 113.32C118.824 113.653 119.097 113.973 119.364 114.28C119.644 114.587 119.897 114.853 120.124 115.08C120.364 115.307 120.617 115.487 120.884 115.62C121.164 115.74 121.484 115.8 121.844 115.8V116H121.224C120.491 116 119.884 115.907 119.404 115.72C118.937 115.533 118.557 115.307 118.264 115.04C117.971 114.76 117.717 114.493 117.504 114.24C117.451 114.173 117.324 114.007 117.124 113.74C116.937 113.46 116.731 113.16 116.504 112.84C116.277 112.52 116.071 112.233 115.884 111.98C115.697 111.713 115.584 111.553 115.544 111.5C115.277 111.153 114.971 110.847 114.624 110.58C114.277 110.3 113.911 110.16 113.524 110.16V109.96C113.524 109.96 113.631 109.967 113.844 109.98C114.057 109.98 114.331 109.973 114.664 109.96C115.037 109.947 115.411 109.92 115.784 109.88C116.157 109.827 116.504 109.68 116.824 109.44C117.157 109.2 117.417 108.8 117.604 108.24C117.657 108.093 117.697 107.92 117.724 107.72C117.751 107.52 117.757 107.313 117.744 107.1C117.731 106.727 117.657 106.393 117.524 106.1C117.404 105.807 117.224 105.553 116.984 105.34C116.757 105.127 116.484 104.96 116.164 104.84C115.844 104.72 115.484 104.653 115.084 104.64C114.457 104.613 113.911 104.607 113.444 104.62C112.977 104.633 112.744 104.633 112.744 104.62C112.744 104.607 112.724 104.553 112.684 104.46C112.657 104.353 112.624 104.253 112.584 104.16C112.557 104.053 112.544 104 112.544 104ZM112.784 104V116H111.504V104H112.784ZM111.564 114.72L111.804 116H110.104V115.8C110.104 115.8 110.151 115.8 110.244 115.8C110.337 115.8 110.384 115.8 110.384 115.8C110.704 115.8 110.971 115.693 111.184 115.48C111.397 115.267 111.511 115.013 111.524 114.72H111.564ZM111.564 105.26H111.524C111.511 104.953 111.397 104.7 111.184 104.5C110.971 104.3 110.704 104.2 110.384 104.2C110.384 104.2 110.337 104.2 110.244 104.2C110.151 104.2 110.104 104.2 110.104 104.2V104H111.804L111.564 105.26ZM112.724 114.72H112.784C112.797 115.013 112.911 115.267 113.124 115.48C113.337 115.693 113.604 115.8 113.924 115.8C113.924 115.8 113.964 115.8 114.044 115.8C114.137 115.8 114.184 115.8 114.184 115.8L114.204 116H112.484L112.724 114.72Z" fill="black"/>
</svg>
