<svg width="135" height="129" viewBox="0 0 135 129" fill="none" xmlns="http://www.w3.org/2000/svg">
<path d="M48.4753 3.00964e-05C38.319 0.0134195 28.6015 1.0459 20.6288 2.9524C9.73236 5.55814 2.44551 9.57646 0 14.8076C15.3041 52.8969 8.829 81.737 0.383921 120.192C4.03606 120.801 8.60445 121.339 13.7729 121.807C16.354 103.821 30.8231 89.7514 49.7265 81.6969L52.5094 80.5112L55.6951 81.3015C61.0926 82.6367 68.2949 83.5919 76.4851 84.1728C76.1824 82.1682 75.9333 80.161 75.7379 78.152C61.0481 71.6314 42.3319 71.8285 25.4688 74.7351L22.0206 68.0753C29.3139 66.8182 37.2111 65.9862 45.2303 65.8899C55.3918 65.7671 65.7494 66.8431 75.2947 69.7602C75.2837 67.1689 75.3914 64.6357 75.6579 62.1821C75.8431 60.4675 76.1135 58.7953 76.4439 57.1611C61.8437 49.4733 47.2913 49.9791 30.1069 51.6171L28.1518 44.7587C32.7963 44.3161 37.5815 43.9643 42.4474 43.8408C43.3591 43.8177 44.2721 43.8006 45.1897 43.7943C56.43 43.7207 67.9639 45.0105 78.8023 49.3733C80.4154 45.6019 82.6738 42.1868 85.8194 39.2501C68.7763 28.7914 51.639 27.9851 32.1627 28.2893L31.84 21.3506C33.2248 21.329 34.6121 21.3186 36.0148 21.3157C37.4176 21.3127 38.8346 21.3168 40.2496 21.3391C58.0586 21.6195 76.8355 24.0639 93.725 33.9728C100.425 30.8828 109.294 29.4129 119.535 29.9864C117.103 21.7415 110.424 15.4671 101.246 10.728C90.4833 5.17059 76.1283 1.78492 61.4824 0.546023C57.1759 0.179552 52.8284 -0.00269434 48.4753 3.00964e-05ZM54.5252 88.4385C38.9036 95.7848 26.6335 108.459 25.5288 125.143C47.4739 129.587 79.0759 131.097 135 124.724C134.287 108.902 127.867 97.9714 118.99 91.1234C95.917 92.5304 71.8296 92.035 54.5252 88.4385Z" fill="#F2ECDC"/>
<path d="M20.6288 2.9524C28.6015 1.0459 38.319 0.0134195 48.4753 3.00964e-05C52.8284 -0.00269434 57.1759 0.179552 61.4824 0.546023C76.1283 1.78492 90.4833 5.17059 101.246 10.728C110.424 15.4671 117.103 21.7415 119.535 29.9864C109.294 29.4129 100.425 30.8828 93.725 33.9728C76.8355 24.0639 58.0586 21.6195 40.2496 21.3391C38.8346 21.3168 37.4176 21.3127 36.0148 21.3157C34.6121 21.3186 33.2248 21.329 31.84 21.3506L32.1627 28.2893C51.639 27.9851 68.7763 28.7914 85.8194 39.2501C82.6738 42.1868 80.4154 45.6019 78.8023 49.3733C67.9639 45.0105 56.43 43.7207 45.1897 43.7943C44.2721 43.8006 43.3591 43.8177 42.4474 43.8408C37.5815 43.9643 32.7963 44.3161 28.1518 44.7587L30.1069 51.6171C47.2913 49.9791 61.8437 49.4733 76.4439 57.1611C76.1135 58.7953 75.8431 60.4675 75.6579 62.1821C75.3914 64.6357 75.2837 67.1689 75.2947 69.7602C65.7494 66.8431 55.3918 65.7671 45.2303 65.8899C37.2111 65.9862 29.3139 66.8182 22.0206 68.0753L25.4688 74.7351C42.3319 71.8285 61.0481 71.6314 75.7379 78.152C75.9333 80.161 76.1824 82.1682 76.4851 84.1728C68.2949 83.5919 61.0926 82.6367 55.6951 81.3015L52.5094 80.5112L49.7265 81.6969C30.8231 89.7514 16.354 103.821 13.7729 121.807C8.60445 121.339 4.03606 120.801 0.383921 120.192L0.532357 119.51C8.90362 81.3957 15.2136 52.6716 0 14.8076C2.44551 9.57646 9.73236 5.55814 20.6288 2.9524Z" fill="#F2ECDC"/>
<path d="M25.5288 125.143C26.6335 108.459 38.9036 95.7848 54.5252 88.4385C71.8296 92.035 95.917 92.5304 118.99 91.1234C127.867 97.9714 134.287 108.902 135 124.724C79.0759 131.097 47.4739 129.587 25.5288 125.143Z" fill="#F2ECDC"/>
</svg>
