<svg width="46" height="44" viewBox="0 0 46 44" fill="none" xmlns="http://www.w3.org/2000/svg">
<path d="M16.5175 1.02654e-05C13.0569 0.00457721 9.7457 0.35674 7.02906 1.00702C3.31621 1.8958 0.833285 3.26639 0 5.05067C5.21474 18.0424 3.0084 27.8793 0.130818 40.9956C1.37525 41.2036 2.93189 41.3871 4.693 41.5466C5.57246 35.4117 10.5027 30.6129 16.9438 27.8656L17.8921 27.4612L18.9776 27.7307C20.8167 28.1862 23.2709 28.5119 26.0616 28.7101C25.9584 28.0264 25.8736 27.3418 25.807 26.6565C20.8016 24.4324 14.4242 24.4996 8.67826 25.491L7.5033 23.2195C9.98843 22.7907 12.6793 22.5069 15.4118 22.4741C18.8742 22.4322 22.4035 22.7992 25.656 23.7942C25.6522 22.9103 25.6889 22.0463 25.7797 21.2094C25.8428 20.6246 25.935 20.0542 26.0475 19.4968C21.0727 16.8746 16.1141 17.0471 10.2586 17.6058L9.59246 15.2665C11.175 15.1156 12.8055 14.9956 14.4635 14.9535C14.7742 14.9456 15.0853 14.9398 15.398 14.9376C19.228 14.9125 23.1581 15.3524 26.8511 16.8405C27.4008 15.5541 28.1703 14.3893 29.2422 13.3876C23.4349 9.82034 17.5955 9.5453 10.9591 9.64908L10.8492 7.28238C11.321 7.27502 11.7937 7.27147 12.2717 7.27046C12.7497 7.26944 13.2325 7.27084 13.7147 7.27845C19.7829 7.3741 26.181 8.20783 31.9359 11.5876C34.219 10.5337 37.2408 10.0323 40.7305 10.2279C39.9016 7.41571 37.626 5.27559 34.4987 3.65915C30.8313 1.76361 25.94 0.608809 20.9495 0.18624C19.4822 0.0612427 18.0008 -0.000918999 16.5175 1.02654e-05ZM18.579 30.1651C13.2561 32.6708 9.07511 36.9939 8.69871 42.6843C16.1763 44.2003 26.9444 44.7151 46 42.5416C45.757 37.145 43.5696 33.4166 40.5447 31.0809C32.6828 31.5608 24.4753 31.3918 18.579 30.1651Z" fill="#4E2513"/>
<path d="M7.02906 1.00702C9.7457 0.35674 13.0569 0.00457721 16.5175 1.02654e-05C18.0008 -0.000918999 19.4822 0.0612427 20.9495 0.18624C25.94 0.608809 30.8313 1.76361 34.4987 3.65915C37.626 5.27559 39.9016 7.41571 40.7305 10.2279C37.2408 10.0323 34.219 10.5337 31.9359 11.5876C26.181 8.20783 19.7829 7.3741 13.7147 7.27845C13.2325 7.27084 12.7497 7.26944 12.2717 7.27046C11.7937 7.27147 11.321 7.27502 10.8492 7.28238L10.9591 9.64908C17.5955 9.5453 23.4349 9.82034 29.2422 13.3876C28.1703 14.3893 27.4008 15.5541 26.8511 16.8405C23.1581 15.3524 19.228 14.9125 15.398 14.9376C15.0853 14.9398 14.7742 14.9456 14.4635 14.9535C12.8055 14.9956 11.175 15.1156 9.59246 15.2665L10.2586 17.6058C16.1141 17.0471 21.0727 16.8746 26.0475 19.4968C25.935 20.0542 25.8428 20.6246 25.7797 21.2094C25.6889 22.0463 25.6522 22.9103 25.656 23.7942C22.4035 22.7992 18.8742 22.4322 15.4118 22.4741C12.6793 22.5069 9.98843 22.7907 7.5033 23.2195L8.67826 25.491C14.4242 24.4996 20.8016 24.4324 25.807 26.6565C25.8736 27.3418 25.9584 28.0264 26.0616 28.7101C23.2709 28.5119 20.8167 28.1862 18.9776 27.7307L17.8921 27.4612L16.9438 27.8656C10.5027 30.6129 5.57246 35.4117 4.693 41.5466C2.93189 41.3871 1.37525 41.2036 0.130818 40.9956L0.181396 40.7632C3.03383 27.7629 5.18389 17.9655 0 5.05067C0.833285 3.26639 3.31621 1.8958 7.02906 1.00702Z" fill="#4E2513"/>
<path d="M8.69871 42.6843C9.07511 36.9939 13.2561 32.6708 18.579 30.1651C24.4753 31.3918 32.6828 31.5608 40.5447 31.0809C43.5696 33.4166 45.757 37.145 46 42.5416C26.9444 44.7151 16.1763 44.2003 8.69871 42.6843Z" fill="#4E2513"/>
</svg>
