<svg width="367" height="250" viewBox="0 0 367 250" fill="none" xmlns="http://www.w3.org/2000/svg">
<g filter="url(#filter0_d_1471_18584)">
<path d="M8.11914 4.25024H358.119V237.25H8.11914V4.25024Z" fill="#1F3D3B"/>
<path d="M354.932 63.6877V59.7815C354.931 58.9841 355.21 58.2748 355.604 57.6877L356.9 55.7346L358.01 54.0627L357.588 52.5159L357.041 50.5627C356.948 50.2324 356.865 49.8932 356.775 49.5627L355.713 45.6565C355.533 44.9918 355.534 44.3063 355.713 43.6409L356.229 41.6877L356.76 39.7346C356.838 39.4434 356.901 39.1497 356.963 38.8596L357.807 34.9534C357.823 34.8757 357.819 34.8064 357.807 34.7346L357.15 30.8284C357.127 30.691 357.076 30.5372 356.994 30.3596L355.213 26.4534C354.875 25.7174 354.788 24.8934 355.025 24.0784L355.588 22.1252L356.166 20.1721C356.211 20.0159 356.227 19.8697 356.229 19.7346L356.26 17.7815L356.275 15.8284C356.276 15.7152 356.27 15.5915 356.229 15.4534L355.635 13.5002L355.057 11.5471C354.84 10.8201 354.861 10.0714 355.104 9.35962L355.744 7.48462L354.9 7.45337C354.831 7.45026 354.691 7.45998 354.479 7.50024L352.525 7.85962L350.572 8.23462C349.472 8.44036 348.55 7.9914 347.916 7.43774L345.963 5.73462L344.088 4.09399H340.447C340.117 4.09337 339.778 4.08158 339.447 4.07837L335.541 4.04712C335.218 4.04398 334.895 4.0347 334.572 4.03149L332.619 4.01587H330.838L328.932 5.37524L326.979 6.78149C326.563 7.08134 326.011 7.3333 325.354 7.34399C324.692 7.35321 324.127 7.10975 323.697 6.81274L321.744 5.46899L320.275 4.43774L318.9 5.14087L316.947 6.14087C316.116 6.56043 315.176 6.61058 314.291 6.23462L312.338 5.40649L310.385 4.56274C310.223 4.49367 310.082 4.46699 309.963 4.45337L308.01 4.21899L306.104 4.01587L304.166 4.87524L302.229 5.75024C301.818 5.93335 301.389 6.08504 300.963 6.20337L299.01 6.73462L297.057 7.28149C296.634 7.39862 296.207 7.48321 295.775 7.53149L291.869 7.96899C291.49 8.01126 291.109 8.03638 290.729 8.04712L288.775 8.10962L286.822 8.15649C286.463 8.16659 286.104 8.1657 285.744 8.15649L281.838 8.06274C281.232 8.04709 280.644 7.90848 280.104 7.67212L278.15 6.81274L276.494 6.07837L274.838 6.76587L272.885 7.56274C272.187 7.84795 271.424 7.9225 270.666 7.73462L266.76 6.76587C266.36 6.66653 265.965 6.53712 265.572 6.39087L263.619 5.65649L261.744 4.95337L259.916 5.42212L257.963 5.90649C257.353 6.05659 256.721 6.07951 256.104 5.95337L254.166 5.54712L252.275 5.15649L250.4 5.90649L248.447 6.65649C247.911 6.8651 247.347 6.98292 246.76 6.98462L244.807 7.00024H242.854C242.691 7.00053 242.514 7.01989 242.338 7.06274L240.385 7.53149L238.447 8.01587C237.688 8.20049 236.924 8.11634 236.229 7.82837L232.322 6.20337C231.981 6.06153 231.632 5.91785 231.291 5.76587L229.338 4.89087L227.869 4.25024L226.338 5.20337L224.4 6.43774C223.981 6.70228 223.452 6.90269 222.854 6.90649C222.252 6.90909 221.716 6.71731 221.291 6.45337L219.338 5.23462L218.088 4.46899L216.775 5.54712L214.822 7.12524C214.252 7.58471 213.513 7.95101 212.635 7.96899L210.682 8.00024L208.729 8.04712C207.968 8.06111 207.274 7.82564 206.682 7.46899L204.729 6.28149L202.822 5.12524L201.025 5.28149L199.072 5.42212C199.089 5.4209 199.104 5.42205 199.104 5.42212C199.096 5.42481 199.058 5.42366 199.01 5.45337L195.104 7.89087C194.677 8.15643 194.146 8.34902 193.541 8.34399C192.938 8.33866 192.413 8.14267 191.994 7.87524L190.041 6.62524L188.354 5.54712L186.807 6.01587L184.854 6.59399C184.195 6.78781 183.509 6.80486 182.838 6.64087L178.932 5.67212C178.729 5.62246 178.53 5.60413 178.338 5.59399L176.385 5.48462L174.432 5.39087C174.127 5.37555 173.815 5.36561 173.51 5.35962L171.557 5.32837L169.604 5.28149C169.484 5.27956 169.355 5.30404 169.213 5.34399L165.307 6.43774C164.495 6.66584 163.676 6.58621 162.947 6.25024L160.994 5.34399L159.182 4.50024L157.385 4.89087L155.447 5.32837C154.932 5.4428 154.397 5.47999 153.869 5.43774L149.963 5.12524C149.647 5.1 149.325 5.08418 149.01 5.06274L147.057 4.92212L145.119 4.79712C144.789 4.77472 144.449 4.74363 144.119 4.71899L142.166 4.57837L140.307 4.42212L138.385 5.46899L136.432 6.51587C135.442 7.04744 134.351 6.97403 133.447 6.40649L131.494 5.18774L129.979 4.23462L128.525 4.90649L126.572 5.81274C125.943 6.10541 125.239 6.24333 124.51 6.15649L120.604 5.68774C120.225 5.6424 119.84 5.57748 119.463 5.50024L117.51 5.10962L115.807 4.75024L114.041 5.78149L112.088 6.90649C111.473 7.26037 110.755 7.47413 109.979 7.42212L108.025 7.28149L106.072 7.15649C105.739 7.13393 105.406 7.10611 105.072 7.07837L103.119 6.92212L101.166 6.75024C101.092 6.74406 101.001 6.75253 100.9 6.78149L96.9941 7.90649C96.559 8.03143 96.1135 8.11181 95.666 8.15649L93.7129 8.35962L91.7598 8.54712C91.0885 8.61321 90.4392 8.5116 89.8379 8.26587L87.8848 7.45337L85.9316 6.65649C85.8249 6.61265 85.745 6.60986 85.6973 6.60962L81.791 6.57837C81.6488 6.57821 81.4972 6.5989 81.3379 6.64087L77.4316 7.67212C76.8233 7.83174 76.1945 7.85354 75.5723 7.73462L73.6191 7.35962L71.666 7.00024C71.5162 6.97199 71.3706 6.95753 71.2285 6.96899L67.3223 7.28149C67.057 7.30307 66.7924 7.34655 66.5254 7.39087L64.5723 7.70337L62.6191 8.03149C62.1763 8.10521 61.7232 8.14811 61.2754 8.14087L57.3691 8.07837C56.6407 8.0655 55.975 7.82877 55.4004 7.48462L53.4473 6.31274L52.0566 5.48462L50.666 6.37524L48.7129 7.60962C48.2961 7.87345 47.7767 8.07043 47.1816 8.07837C46.5858 8.08544 46.0618 7.90011 45.6348 7.64087L43.6816 6.46899L42.1504 5.53149L40.6973 6.23462L38.7441 7.14087C38.2654 7.36577 37.7541 7.52588 37.2285 7.60962L33.3223 8.23462C32.6461 8.3416 31.9796 8.25861 31.3535 8.03149L29.4004 7.32837L27.4473 6.60962C27.3841 6.58663 27.3502 6.59283 27.3379 6.59399L23.4316 6.96899C22.7477 7.03313 22.0838 6.91565 21.4785 6.65649L19.5254 5.81274L17.9785 5.15649L16.416 6.04712L14.4629 7.15649C13.7213 7.57341 12.8435 7.73243 11.9473 7.46899L9.99414 6.89087L9.27539 6.67212L9.60352 7.81274C9.69562 8.13691 9.78443 8.47007 9.86914 8.81274L10.8379 12.719C11.0235 13.4707 10.9608 14.2279 10.6816 14.9221L9.88477 16.8752L9.10352 18.8284C9.02482 19.0231 8.97464 19.2073 8.94727 19.3752L8.63477 21.3284L8.35352 22.9534L9.58789 24.7502L10.9316 26.7034C11.5077 27.5392 11.6943 28.6158 11.2129 29.6565L10.3066 31.6096L9.58789 33.1252L10.4629 34.6721L11.5566 36.6252C11.9713 37.3635 12.1251 38.2322 11.8691 39.1252L10.7441 43.0315C10.6691 43.2918 10.6178 43.5573 10.5723 43.8127L10.2129 45.7659L9.86914 47.719C9.84978 47.8308 9.85308 47.9383 9.86914 48.0471L10.1504 50.0002L10.4473 51.9534C10.5205 52.4515 10.5224 52.9533 10.4629 53.4534L9.99414 57.3596C9.98654 57.4244 9.98827 57.4946 10.0098 57.5784L10.541 59.5315L11.0566 61.4846L11.1816 62.5002C11.1804 62.8348 11.1457 63.1705 11.0566 63.5002L10.5254 65.4534L10.041 67.219L10.8066 69.0315L11.6191 70.9846C12.0953 72.1178 11.7678 73.2102 11.1504 73.9846L9.60352 75.9377L8.58789 77.1877L9.44727 78.4065L10.8379 80.3596C11.1103 80.7433 11.3427 81.2362 11.4004 81.8127C11.4587 82.3999 11.3238 82.944 11.0879 83.4065L10.0879 85.3596L9.10352 87.3127C9.08184 87.3553 9.07426 87.3831 9.07227 87.3909V89.3284L9.05664 91.2815C9.05626 91.5395 9.07779 91.8038 9.10352 92.0627L9.29102 94.0159L9.49414 95.969C9.54953 96.5327 9.4939 97.0962 9.35352 97.6409L8.85352 99.594L8.36914 101.453L9.04102 103.297L9.74414 105.25C10.0376 106.072 9.99262 106.925 9.65039 107.703L8.79102 109.656L8.21289 110.938L9.50977 112.422L11.1816 114.375C11.6574 114.929 12.0541 115.661 12.1035 116.547L12.3223 120.453C12.3578 121.098 12.2464 121.719 12.0098 122.297L11.2129 124.25L10.4316 126.125L10.8223 127.969L11.2129 129.922C11.3679 130.679 11.2724 131.419 10.9785 132.094L10.1191 134.047L9.36914 135.75L10.0098 137.438L10.7285 139.391C11.0334 140.215 10.9959 141.074 10.6504 141.86L9.79102 143.813L9.16602 145.203L10.2754 146.719L11.6816 148.672C12.2483 149.453 12.5065 150.483 12.0879 151.547L10.5566 155.453C10.5008 155.595 10.4684 155.716 10.4629 155.813L10.2441 159.719C10.2436 159.735 10.2478 159.774 10.2754 159.844L11.041 161.797L11.8223 163.75C12.1502 164.581 12.13 165.461 11.7754 166.266L10.916 168.219L10.041 170.172C9.90123 170.489 9.77072 170.809 9.63477 171.125L8.79102 173.078L8.05664 174.781L8.66602 176.485L9.36914 178.438C9.56282 178.975 9.65909 179.545 9.65039 180.125L9.61914 182.078L9.58789 184L9.61914 184.047L10.6348 186L11.666 187.953C11.9228 188.443 12.0536 189.029 11.9629 189.656C11.875 190.263 11.6053 190.758 11.3066 191.125L9.71289 193.078L8.79102 194.188L9.83789 195.36L11.5566 197.313C11.8712 197.669 12.1849 198.167 12.291 198.797C12.4013 199.457 12.2545 200.074 11.9785 200.578L10.9004 202.531L9.99414 204.172L10.5723 205.766L11.291 207.719C11.5206 208.35 11.5915 209.022 11.4785 209.703L10.8223 213.61C10.7685 213.932 10.7191 214.256 10.666 214.578L10.3379 216.531L10.0254 218.485C9.98084 218.755 9.9531 219.028 9.93164 219.297L9.61914 223.203C9.60887 223.334 9.60549 223.468 9.63477 223.61L10.4473 227.516C10.5314 227.92 10.6008 228.327 10.6348 228.735L10.791 230.688L10.9629 232.641C10.9916 232.987 11.0067 233.309 11.0098 233.578V233.985L11.1504 233.969L13.1035 233.641L13.7754 233.594C13.9971 233.605 14.21 233.65 14.416 233.703L15.541 234.219L17.4941 235.563L18.8066 236.453L20.1348 235.594L22.0879 234.313C22.7097 233.902 23.4714 233.637 24.3223 233.703L28.2285 234.016C28.5667 234.042 28.906 234.06 29.2441 234.094L31.1973 234.297L33.1504 234.485C33.1992 234.49 33.257 234.494 33.3379 234.469L35.291 233.86L37.2441 233.266L38.3066 233.094L39.3691 233.25L43.2754 234.375C43.3461 234.395 43.4015 234.397 43.4473 234.391L45.4004 234.156L47.3379 233.906C48.1888 233.801 48.9741 234.039 49.6191 234.438L51.5723 235.641L52.8379 236.422L54.1973 235.422L56.1504 233.969C56.73 233.535 57.4599 233.212 58.3066 233.203L60.2598 233.172L62.2129 233.156L62.9004 233.219C63.5534 233.36 64.0981 233.702 64.5254 234.078L66.4785 235.797L67.6816 236.86L68.8223 235.985L70.7754 234.485L71.416 234.094C71.8813 233.882 72.4018 233.778 72.9473 233.844L73.7754 234.063L75.7285 234.938L77.6816 235.797C77.8221 235.859 77.9357 235.882 78.0254 235.891L79.9785 236.063L81.9316 236.25C82.223 236.277 82.5156 236.285 82.8066 236.297L86.7129 236.453C86.8172 236.457 86.9303 236.457 87.0566 236.422L89.0098 235.86L90.9629 235.313C91.5662 235.143 92.1975 235.098 92.8223 235.203L94.7754 235.547L96.4785 235.828L98.291 234.735L100.229 233.563L101.229 233.125C101.587 233.027 101.969 232.991 102.369 233.016L104.322 233.125L106.275 233.25C106.619 233.271 106.963 233.297 107.307 233.328L109.26 233.516L111.213 233.688C111.848 233.746 112.445 233.956 112.979 234.25L114.932 235.313L116.869 236.391C117.042 236.486 117.193 236.538 117.307 236.563L119.26 236.985L120.979 237.344L122.76 236.375L124.713 235.313C125.165 235.065 125.638 234.865 126.135 234.735L130.041 233.703C130.502 233.582 130.973 233.519 131.447 233.5L135.354 233.344L136.494 233.485C136.848 233.591 137.178 233.747 137.479 233.938L139.432 235.188L141.057 236.235L142.604 235.719L144.557 235.078L145.666 234.891L146.775 235.063L148.729 235.688L150.525 236.266L152.338 235.641L154.291 234.953C154.686 234.815 155.092 234.7 155.494 234.61L157.432 234.172L159.385 233.719C159.858 233.612 160.32 233.626 160.744 233.719L161.916 234.219L163.869 235.516L165.354 236.5L166.791 235.828L168.744 234.922L169.385 234.703C170.035 234.55 170.711 234.599 171.354 234.875L173.307 235.719L175.213 236.531L177.072 236.235L179.01 235.891C179.564 235.797 180.13 235.806 180.682 235.906L184.588 236.625C184.919 236.686 185.257 236.748 185.588 236.813L187.541 237.203L189.104 237.5L190.838 236.219L192.791 234.766L193.854 234.203C194.245 234.074 194.674 234.008 195.135 234.047L199.041 234.391C199.312 234.414 199.584 234.421 199.854 234.422L201.807 234.438H203.76C204.172 234.44 204.585 234.476 204.994 234.531L208.9 235.063C209.046 235.082 209.192 235.082 209.338 235.063L213.244 234.531C213.828 234.453 214.412 234.482 214.979 234.625L216.932 235.125L218.76 235.594L220.635 234.922L222.588 234.219L223.213 234.047C223.421 234.015 223.631 234.008 223.838 234.016L225.057 234.313L228.963 236.031C229.139 236.109 229.294 236.151 229.432 236.172L231.385 236.469L233.275 236.766L235.213 235.985L237.166 235.203C237.489 235.073 237.812 234.943 238.135 234.813L240.088 234.016L242.041 233.235C242.623 232.999 243.252 232.88 243.9 232.922L247.807 233.172C248.109 233.192 248.411 233.208 248.713 233.219L250.666 233.281L252.619 233.36C253.394 233.387 254.08 233.658 254.65 234.047L256.604 235.391L258.229 236.516L259.76 236.031L261.713 235.406L262.869 235.25L264.01 235.485L265.963 236.25L267.916 237C268.024 237.042 268.107 237.047 268.166 237.047H272.072C272.214 237.046 272.365 237.028 272.525 236.985L276.432 235.922C276.886 235.799 277.355 235.714 277.822 235.688L279.76 235.578L281.713 235.469C281.948 235.456 282.192 235.436 282.432 235.391L286.338 234.641C286.742 234.565 287.149 234.526 287.557 234.5L291.463 234.25C291.665 234.238 291.876 234.209 292.088 234.156L294.041 233.672L295.994 233.203C296.542 233.068 297.102 233.017 297.666 233.078L301.572 233.516C302.107 233.575 302.629 233.713 303.119 233.922L305.057 234.75L307.01 235.594C307.174 235.664 307.323 235.688 307.447 235.703L309.4 235.953L311.354 236.188C311.482 236.204 311.612 236.21 311.744 236.188L313.697 235.844L315.65 235.516C316.264 235.411 316.882 235.435 317.479 235.594L319.432 236.125L321.385 236.641C321.514 236.676 321.635 236.693 321.744 236.688L325.65 236.5C325.757 236.495 325.88 236.46 326.025 236.406L327.979 235.688L329.932 234.953C330.286 234.821 330.654 234.752 331.025 234.735L332.135 234.86L334.088 235.391L335.65 235.828L337.354 234.75L339.307 233.485C339.888 233.111 340.581 232.914 341.307 232.985L342.041 233.141L343.994 233.828L345.932 234.531C346.352 234.68 346.777 234.851 347.182 235.063L349.135 236.094L350.432 236.766L351.869 235.688L353.822 234.203C354.37 233.786 355.039 233.447 355.822 233.375L356.947 233.266L355.916 231.641C355.424 230.862 355.236 229.898 355.588 228.922L356.291 226.969L356.963 225.078L356.525 223.235L356.057 221.281C355.899 220.62 355.919 219.948 356.104 219.297L356.65 217.344L357.088 215.766L356.01 214.11L354.729 212.156C354.469 211.759 354.277 211.259 354.244 210.688C354.212 210.108 354.349 209.568 354.588 209.125L355.65 207.188L356.51 205.547L355.916 203.969L355.15 202.016C354.891 201.345 354.821 200.617 354.979 199.891L355.4 197.938L355.822 196C355.892 195.679 355.973 195.353 356.041 195.031L356.447 193.078L356.869 191.125C356.875 191.1 356.876 191.078 356.869 191.047L355.9 187.141C355.769 186.61 355.713 186.064 355.76 185.516L356.104 181.61C356.113 181.504 356.101 181.387 356.072 181.266L355.135 177.36C354.992 176.763 354.972 176.152 355.088 175.547L355.838 171.641C355.918 171.225 356.029 170.813 356.166 170.406L356.822 168.453L357.369 166.813L356.494 165.141L355.479 163.188C355.075 162.414 354.975 161.521 355.275 160.641L355.932 158.688L356.557 156.828L356.041 155L355.494 153.047C355.384 152.66 355.284 152.267 355.213 151.875L354.869 149.922L354.51 147.969C354.37 147.189 354.498 146.434 354.822 145.766L356.729 141.86C356.771 141.77 356.775 141.725 356.775 141.719L356.807 139.766L356.854 137.813C356.855 137.73 356.845 137.632 356.807 137.516L355.494 133.61C355.369 133.233 355.272 132.85 355.182 132.469L354.713 130.516L354.26 128.563C354.107 127.915 354.106 127.25 354.275 126.61L354.807 124.656L355.307 122.735L354.744 120.86L354.166 118.906C353.935 118.122 354.001 117.324 354.307 116.594L355.135 114.641L355.807 113L355.057 111.375L354.15 109.422C353.859 108.789 353.729 108.075 353.822 107.344L354.072 105.391L354.322 103.453C354.354 103.205 354.367 102.949 354.369 102.703L354.4 98.7971C354.405 98.2815 354.49 97.7745 354.635 97.2815L355.791 93.3752C355.91 92.9728 356.046 92.5655 356.213 92.1721L357.041 90.2346L357.619 88.8752L356.416 87.3752L354.854 85.4221C354.248 84.6623 353.922 83.5958 354.369 82.469L355.15 80.5159L355.916 78.5627C355.997 78.3599 356.056 78.1644 356.088 77.9846L356.432 76.0315L356.76 74.0784C356.798 73.858 356.819 73.6378 356.822 73.4221L356.885 69.5159C356.885 69.4733 356.878 69.3971 356.838 69.2971L356.057 67.3596L355.275 65.4065C355.059 64.865 354.933 64.2843 354.932 63.6877ZM7.19727 62.4846H7.18164V62.469L7.19727 62.4534V62.4846ZM358.932 63.6877C358.933 63.74 358.953 63.8189 358.994 63.9221L359.775 65.8752L360.541 67.8127C360.761 68.3629 360.892 68.9554 360.885 69.5627L360.822 73.469C360.817 73.9017 360.787 74.3378 360.713 74.7659L360.025 78.6721C359.944 79.137 359.81 79.5897 359.635 80.0315L358.854 81.9846L358.307 83.344L359.541 84.8752L361.104 86.8284C361.724 87.6054 362.039 88.7089 361.557 89.844L359.9 93.7502C359.792 94.0059 359.692 94.2535 359.619 94.5002L359.057 96.4534L358.479 98.4065C358.434 98.5587 358.402 98.6983 358.4 98.8284L358.369 102.735C358.366 103.139 358.342 103.551 358.291 103.953L358.041 105.906L357.791 107.75L358.697 109.688L359.588 111.641C359.969 112.468 359.993 113.383 359.635 114.235L358.822 116.188L358.057 117.953L358.588 119.719L359.15 121.672C359.349 122.346 359.363 123.052 359.182 123.735L358.15 127.641L358.604 129.594L359.072 131.547C359.134 131.81 359.202 132.077 359.291 132.344L359.947 134.297L360.588 136.25C360.764 136.781 360.865 137.341 360.854 137.906L360.807 139.86L360.775 141.797C360.762 142.441 360.591 143.054 360.322 143.61L359.369 145.563L358.463 147.422L358.807 149.219L359.15 151.172C359.197 151.43 359.263 151.692 359.338 151.953L359.885 153.906L360.447 155.86C360.652 156.582 360.625 157.329 360.385 158.031L359.729 159.985L359.166 161.594L360.041 163.281L361.057 165.235C361.459 166.006 361.572 166.902 361.275 167.781L359.963 171.688C359.882 171.927 359.82 172.161 359.775 172.391L359.025 176.297C359.017 176.34 359.013 176.386 359.025 176.438L359.494 178.375L359.963 180.328C360.09 180.858 360.135 181.408 360.088 181.953L359.744 185.86C359.736 185.957 359.748 186.059 359.775 186.172L360.744 190.078C360.897 190.695 360.908 191.329 360.775 191.953L360.369 193.906L359.947 195.86C359.877 196.187 359.8 196.516 359.729 196.844L359.307 198.797L358.9 200.625L359.635 202.531L360.4 204.485C360.749 205.39 360.646 206.321 360.213 207.125L359.166 209.078L358.416 210.469L359.354 211.922L360.635 213.875C361.108 214.604 361.331 215.52 361.057 216.485L360.51 218.438L359.947 220.391L360.416 222.313L360.885 224.25C361.056 224.967 361.004 225.697 360.76 226.375L360.057 228.328L359.494 229.844L360.525 231.469L361.76 233.406C361.869 233.579 361.999 233.836 362.088 234.141C362.176 234.442 362.256 234.93 362.072 235.485C361.641 236.781 360.401 236.97 360.072 237L358.135 237.188L356.291 237.344C356.281 237.351 356.264 237.36 356.244 237.375L354.291 238.875L352.338 240.36C351.961 240.647 351.464 240.898 350.869 240.969C350.262 241.04 349.702 240.904 349.229 240.656L347.275 239.641L345.322 238.61C345.076 238.48 344.834 238.379 344.604 238.297L342.65 237.61L341.135 237.063L339.525 238.11L337.572 239.36C336.846 239.827 335.935 240.045 334.979 239.781L333.025 239.25L331.182 238.75L329.385 239.438L327.432 240.156C326.928 240.344 326.396 240.457 325.854 240.485L323.9 240.578L321.947 240.688C321.408 240.714 320.872 240.655 320.354 240.516L318.4 239.985L316.447 239.469C316.395 239.455 316.357 239.447 316.322 239.453L314.385 239.781L312.432 240.125C311.916 240.214 311.389 240.22 310.869 240.156L306.963 239.688C306.438 239.623 305.931 239.472 305.447 239.266L303.494 238.438L301.541 237.594C301.384 237.527 301.249 237.497 301.135 237.485L299.182 237.266L297.229 237.063C297.142 237.053 297.05 237.053 296.947 237.078L293.041 238.047C292.604 238.154 292.159 238.223 291.713 238.25L289.76 238.36L287.807 238.485C287.569 238.499 287.33 238.533 287.088 238.578L285.135 238.953L283.182 239.313C282.773 239.39 282.36 239.446 281.947 239.469L278.041 239.688C277.86 239.698 277.673 239.729 277.479 239.781L273.572 240.844C273.084 240.976 272.579 241.046 272.072 241.047H268.166C267.577 241.048 267.001 240.943 266.463 240.735L264.525 239.969L262.744 239.281L260.963 239.844L259.01 240.469C258.005 240.787 257.049 240.538 256.307 240.031L254.354 238.688L252.4 237.36L252.369 237.328L250.525 237.281L248.572 237.219C248.229 237.207 247.884 237.179 247.541 237.156L243.635 236.906C243.626 236.906 243.598 236.915 243.541 236.938L241.588 237.719L239.635 238.516C239.312 238.647 238.989 238.776 238.666 238.906L236.713 239.703L234.76 240.485C234.124 240.741 233.432 240.843 232.729 240.735L230.775 240.422L228.822 240.125C228.31 240.046 227.811 239.897 227.338 239.688L225.385 238.828L223.666 238.063L221.994 238.688L220.041 239.391C219.354 239.638 218.623 239.683 217.9 239.5L215.947 239L213.994 238.516C213.911 238.495 213.842 238.491 213.775 238.5L211.822 238.75L209.869 239.016C209.37 239.083 208.869 239.083 208.369 239.016L206.416 238.75L204.463 238.5C204.223 238.468 203.982 238.439 203.744 238.438H201.791L199.838 238.422C199.459 238.42 199.076 238.408 198.697 238.375L196.744 238.203L195.057 238.047L193.229 239.422L191.275 240.875C190.608 241.371 189.725 241.694 188.729 241.5L184.822 240.75C184.504 240.688 184.187 240.621 183.869 240.563L179.963 239.844C179.868 239.827 179.775 239.828 179.682 239.844L175.775 240.5C175.043 240.623 174.332 240.515 173.682 240.235L171.729 239.391L170.119 238.688L168.494 239.453L166.541 240.375C165.523 240.853 164.451 240.701 163.604 240.141L161.65 238.844L159.9 237.703L158.322 238.063L156.369 238.516C156.122 238.572 155.873 238.645 155.619 238.735L153.666 239.406L151.713 240.094C150.98 240.352 150.207 240.365 149.463 240.125L147.51 239.5L145.682 238.906L143.869 239.516L141.916 240.172C140.943 240.495 139.989 240.298 139.229 239.813L137.275 238.563L135.385 237.344L133.557 237.406L131.604 237.485C131.428 237.492 131.246 237.529 131.057 237.578L129.104 238.094L127.15 238.594C127 238.634 126.829 238.707 126.635 238.813L124.682 239.891L122.729 240.953C122.034 241.334 121.219 241.496 120.369 241.313L118.416 240.891L116.463 240.485C115.929 240.369 115.422 240.168 114.947 239.906L111.041 237.75C110.936 237.692 110.876 237.675 110.854 237.672L108.9 237.485L106.947 237.313C106.642 237.285 106.33 237.253 106.025 237.235L104.072 237.125L102.26 237L100.354 238.156L98.4004 239.344C97.7313 239.748 96.9252 239.96 96.0566 239.813L92.1504 239.156C92.126 239.153 92.1 239.145 92.0566 239.156L90.1035 239.719L88.1504 240.266C87.6321 240.412 87.0982 240.474 86.5566 240.453L82.6504 240.297C82.292 240.283 81.9303 240.267 81.5723 240.235L79.6191 240.047L77.666 239.875C77.1067 239.824 76.5628 239.677 76.0566 239.453L74.1191 238.594L72.7441 237.985L71.2598 239.156L69.3066 240.656C68.8674 240.996 68.2495 241.29 67.4941 241.25C66.7566 241.21 66.1789 240.872 65.791 240.531L63.8379 238.797L61.9629 237.156L60.3066 237.172H58.5254L56.6035 238.625L54.6504 240.094C54.2539 240.391 53.7236 240.646 53.0879 240.688C52.4417 240.73 51.8691 240.531 51.416 240.25L49.4629 239.047L47.6035 237.891L45.8848 238.125L43.9316 238.36C43.3281 238.434 42.7273 238.386 42.1504 238.219L40.1973 237.656L38.3223 237.094L36.4629 237.688L34.5098 238.297C33.9428 238.471 33.343 238.529 32.7441 238.469L30.8066 238.281L28.8535 238.078C28.5429 238.047 28.2265 238.025 27.916 238L25.9629 237.844L24.1973 237.688L22.3379 238.938L20.3848 240.235C19.9567 240.516 19.4085 240.727 18.7754 240.719C18.1402 240.711 17.6001 240.475 17.1816 240.188L15.2285 238.86L13.4316 237.625L11.8066 237.906L9.85352 238.235C9.57909 238.28 8.97282 238.351 8.33789 238.063C7.96973 237.895 7.60531 237.61 7.35352 237.188C7.11263 236.782 7.04458 236.376 7.04102 236.063L7.00977 233.625C7.00821 233.489 6.98803 233.271 6.96289 232.969L6.65039 229.063C6.6302 228.821 6.5924 228.575 6.54102 228.328L5.72852 224.422C5.62367 223.918 5.57889 223.406 5.61914 222.891L5.93164 218.985C5.96185 218.606 6.01036 218.221 6.07227 217.844L6.40039 215.891L6.71289 213.938C6.76668 213.611 6.83019 213.28 6.88477 212.953L7.21289 211L7.52539 209.094L6.82227 207.141L6.10352 205.188C5.77249 204.279 5.89015 203.351 6.32227 202.563L7.40039 200.61L8.07227 199.391L6.83789 198.016L5.10352 196.063C4.75659 195.669 4.41127 195.071 4.38477 194.313C4.36004 193.544 4.67892 192.926 5.02539 192.5L6.61914 190.547L7.77539 189.125L7.10352 187.86L6.07227 185.906C5.7667 185.324 5.59225 184.67 5.60352 183.969L5.66602 180.063C5.66671 179.995 5.64324 179.907 5.60352 179.797L4.19727 175.891C3.90604 175.078 3.94222 174.23 4.27539 173.453L5.11914 171.5L5.94727 169.547C6.08964 169.216 6.23842 168.879 6.38477 168.547L7.24414 166.61L7.99414 164.922L7.32227 163.266L6.55664 161.313C6.32897 160.738 6.20814 160.121 6.24414 159.485L6.35352 157.531L6.47852 155.578C6.51052 155.027 6.62195 154.492 6.82227 153.985L7.60352 152.031L8.15039 150.61L7.04102 149.063L5.61914 147.11C5.03102 146.298 4.80207 145.228 5.27539 144.156L6.13477 142.203L6.88477 140.5L6.25977 138.828L5.52539 136.875C5.22063 136.054 5.26124 135.193 5.60352 134.406L6.46289 132.453L7.29102 130.563L6.90039 128.766L6.49414 126.813C6.34518 126.078 6.43981 125.355 6.71289 124.688L8.30664 120.781C8.33623 120.709 8.33819 120.678 8.33789 120.672L8.22852 118.719L8.11914 116.953L6.46289 115.031L4.79102 113.078C4.49466 112.733 4.20849 112.276 4.08789 111.703C3.96198 111.104 4.04864 110.517 4.27539 110L5.13477 108.047L5.90039 106.328L5.27539 104.641L4.57227 102.688C4.32733 102 4.29334 101.268 4.47852 100.547L5.47852 96.6409C5.50542 96.5365 5.51823 96.4448 5.50977 96.3596L5.30664 94.4065L5.11914 92.4534C5.08048 92.0633 5.05613 91.6726 5.05664 91.2815L5.07227 89.3284V87.3752C5.07327 86.6994 5.25069 86.0706 5.54102 85.5002L6.52539 83.5471L7.22852 82.1877L6.19727 80.7346L4.80664 78.7815C4.49379 78.3409 4.24602 77.7451 4.27539 77.0471C4.30547 76.3573 4.59609 75.7921 4.91602 75.3909L6.47852 73.4377L7.68164 71.9221L7.11914 70.5784L6.29102 68.6252C5.99302 67.9119 5.92522 67.1336 6.13477 66.3596L6.66602 64.4065L7.18164 62.4846V62.5002L7.19727 62.5159L6.66602 60.5627L6.15039 58.6096C6.00163 58.0491 5.95684 57.4718 6.02539 56.8909L6.49414 52.9846C6.51189 52.8358 6.50078 52.6823 6.47852 52.5315L5.91602 48.6252C5.8372 48.0883 5.83696 47.5496 5.93164 47.0159L6.27539 45.0627L6.63477 43.1096C6.70531 42.7144 6.78787 42.3125 6.90039 41.9221L7.46289 39.969L7.94727 38.3284L6.97852 36.6252L5.88477 34.6721C5.40347 33.813 5.32507 32.8099 5.75977 31.8752L6.66602 29.9221L7.33789 28.5159L6.29102 27.0315L4.94727 25.0784C4.49247 24.4184 4.21839 23.5733 4.36914 22.6409L4.99414 18.7346C5.07215 18.2542 5.2015 17.7819 5.38477 17.3284L6.18164 15.3752L6.93164 13.5159L6.47852 11.7346L5.99414 9.78149C5.91944 9.47903 5.83901 9.18545 5.75977 8.90649L4.72852 5.25024C4.67517 5.06244 4.5595 4.67186 4.58789 4.23462C4.60249 4.01593 4.66932 3.52852 5.02539 3.06274C5.46508 2.49086 6.11434 2.25024 6.68164 2.25024H7.96289C8.24457 2.25072 8.50241 2.29899 8.63477 2.32837C8.80143 2.36539 8.98288 2.4151 9.16602 2.46899L11.1191 3.04712L12.7598 3.53149L14.4629 2.56274L16.4004 1.46899C17.0248 1.11638 17.7389 0.973804 18.4473 1.09399L19.1504 1.29712L21.1035 2.14087L23.0566 2.96899L23.0723 2.98462L25.0098 2.79712L26.9629 2.60962C27.5996 2.54935 28.2205 2.6469 28.8066 2.85962L30.7598 3.56274L32.6973 4.26587L36.6035 3.67212C36.7258 3.65241 36.8725 3.59502 37.041 3.51587L38.9941 2.60962L40.9473 1.68774L41.6816 1.45337C42.1758 1.36105 42.6696 1.39512 43.1348 1.54712L43.8066 1.85962L45.7598 3.04712L47.1191 3.89087L48.5254 3.00024L50.4785 1.76587C50.8938 1.50265 51.4172 1.30747 52.0098 1.29712C52.3041 1.29255 52.5806 1.33184 52.8379 1.40649L53.5566 1.71899L57.4629 4.06274C57.4927 4.08011 57.5104 4.07858 57.5098 4.07837H57.4473L59.3848 4.10962L61.3379 4.14087C61.5408 4.14415 61.7551 4.12858 61.9629 4.09399L65.8691 3.43774C66.2473 3.37497 66.6299 3.32778 67.0098 3.29712L70.916 2.98462C71.4192 2.9445 71.9206 2.96867 72.416 3.06274L76.3223 3.81274C76.3486 3.81777 76.3769 3.82271 76.416 3.81274L80.3223 2.78149C80.8113 2.65264 81.3157 2.57586 81.8223 2.57837L85.7285 2.60962C86.3283 2.61361 86.906 2.73117 87.4473 2.95337L89.4004 3.76587L91.3535 4.56274H91.3691L95.2754 4.18774C95.4757 4.16759 95.6878 4.12398 95.9004 4.06274L97.8379 3.50024L99.791 2.93774C100.341 2.77932 100.918 2.71782 101.494 2.76587L103.447 2.92212L105.4 3.09399C105.713 3.12001 106.026 3.13533 106.338 3.15649L108.291 3.29712L110.119 3.42212L112.041 2.31274L113.994 1.18774L115.119 0.781494C115.318 0.744751 115.52 0.71784 115.729 0.718994L116.369 0.781494L120.275 1.59399C120.546 1.64925 120.82 1.68709 121.088 1.71899L123.041 1.95337L124.9 2.18774L126.838 1.28149L128.791 0.375244L129.541 0.125244C130.038 0.0376053 130.532 0.0928993 130.994 0.250244L131.666 0.562744L133.619 1.79712L135.072 2.71899L136.494 1.95337L138.447 0.906494L139.432 0.531494C139.776 0.451924 140.136 0.410491 140.51 0.437744L142.463 0.593994L144.416 0.734619C144.737 0.758586 145.064 0.775331 145.385 0.797119L147.338 0.937744L149.291 1.06274C149.623 1.0853 149.959 1.11431 150.291 1.14087L154.197 1.45337C154.317 1.46235 154.44 1.45135 154.572 1.42212L156.525 0.984619L158.479 0.562744L159.635 0.500244L160.729 0.812744L162.682 1.70337L164.447 2.53149L166.182 2.03149L168.135 1.48462C168.638 1.34338 169.156 1.27166 169.682 1.28149L171.635 1.32837L173.588 1.35962C173.934 1.36641 174.289 1.38913 174.635 1.40649L176.572 1.50024L178.525 1.59399C178.981 1.61689 179.44 1.68794 179.885 1.79712L181.838 2.26587L183.744 2.75024L185.682 2.17212L187.619 1.60962C188.342 1.39678 189.05 1.45573 189.666 1.70337L190.244 2.00024L192.197 3.25024L193.572 4.14087L194.947 3.28149L196.9 2.06274C197.45 1.72146 198.079 1.47401 198.775 1.42212L202.682 1.14087L203.838 1.25024C204.197 1.3462 204.53 1.50183 204.838 1.68774L206.791 2.85962L208.729 4.04712L210.604 4.00024L212.354 3.98462L214.26 2.43774L216.213 0.859619L216.9 0.437744C217.16 0.321614 217.452 0.233306 217.775 0.203369C218.109 0.172633 218.424 0.205053 218.713 0.281494L219.51 0.625244L221.447 1.84399L222.822 2.70337L224.213 1.82837L226.166 0.593994L226.822 0.281494C227.283 0.119849 227.776 0.0589928 228.275 0.140869L229.025 0.375244L230.979 1.25024L232.932 2.10962C233.24 2.24725 233.545 2.3878 233.854 2.51587L235.807 3.32837L237.635 4.09399L239.447 3.65649L241.4 3.17212C241.872 3.05758 242.353 3.00156 242.838 3.00024H244.791L246.744 2.98462C246.804 2.98451 246.885 2.97929 246.994 2.93774L248.947 2.17212L250.9 1.42212C251.232 1.29312 251.58 1.20501 251.932 1.17212L253.01 1.23462L254.963 1.62524L256.916 2.03149C256.945 2.03688 256.972 2.04075 257.01 2.03149L260.916 1.06274L262.01 0.953369L263.072 1.18774L265.025 1.92212L266.963 2.64087C267.219 2.73649 267.48 2.81353 267.729 2.87524L269.682 3.35962L271.479 3.81274L273.322 3.06274L275.275 2.26587L275.9 2.07837C276.541 1.95432 277.193 2.02893 277.807 2.29712L279.76 3.14087L281.713 4.00024C281.817 4.04598 281.887 4.06075 281.932 4.06274L285.838 4.15649C286.127 4.16397 286.424 4.16464 286.713 4.15649L288.666 4.10962L290.619 4.04712C290.888 4.03944 291.162 4.03024 291.432 4.00024L293.385 3.78149L295.322 3.56274C295.538 3.53871 295.769 3.48484 295.994 3.42212L297.947 2.89087L299.9 2.34399C300.122 2.28202 300.351 2.19915 300.588 2.09399L304.494 0.343994L305.479 0.0627441C305.813 0.00768085 306.157 -0.0084609 306.51 0.0314941L310.416 0.468994C310.947 0.529839 311.459 0.68302 311.947 0.890869L313.9 1.71899L315.479 2.40649L317.088 1.57837L319.041 0.593994C319.498 0.362191 320.04 0.22872 320.619 0.281494C320.905 0.308085 321.175 0.374188 321.416 0.468994L322.072 0.828369L324.025 2.17212L325.275 3.06274L326.588 2.12524L328.541 0.718994L329.525 0.203369C329.889 0.073044 330.289 -0.00396711 330.713 0.000244141L332.666 0.0158691L334.604 0.0314941C334.929 0.0347262 335.263 0.0439568 335.588 0.0471191L339.494 0.0783691C339.812 0.0814499 340.13 0.0933811 340.447 0.0939941H344.354C344.826 0.094891 345.253 0.208163 345.635 0.375244L346.65 1.01587L348.588 2.71899L350.291 4.21899L351.791 3.93774L353.744 3.56274C354.179 3.48072 354.626 3.43397 355.072 3.45337L356.635 3.53149L358.197 3.59399C358.73 3.61885 359.717 3.86915 360.182 4.92212C360.536 5.7258 360.306 6.4778 360.213 6.75024L359.557 8.68774L358.916 10.5159L359.479 12.3596L360.057 14.3127C360.209 14.8228 360.282 15.3553 360.275 15.8909L360.26 17.8284L360.229 19.7815C360.222 20.2941 360.153 20.8063 360.01 21.2971L359.432 23.2502L358.932 24.969L359.744 26.7346L360.635 28.6877C360.851 29.1591 361.017 29.6598 361.104 30.1721L361.432 32.1096L361.76 34.0627C361.857 34.6401 361.835 35.2261 361.713 35.7971L361.307 37.7502L360.885 39.7034C360.808 40.0621 360.715 40.424 360.619 40.7815L360.104 42.7346L359.572 44.6409L360.104 46.5627L360.635 48.5159C360.722 48.8361 360.811 49.1643 360.9 49.4846L361.447 51.4377L361.994 53.3752C362.269 54.3562 362.027 55.2906 361.541 56.0159L360.229 57.969L358.932 59.8909V63.6877Z" fill="#1F3D3B"/>
<rect width="320" height="203" transform="translate(23.1191 19.2502)" fill="#EEE2D2"/>
</g>
<defs>
<filter id="filter0_d_1471_18584" x="0" y="0" width="366.183" height="249.557" filterUnits="userSpaceOnUse" color-interpolation-filters="sRGB">
<feFlood flood-opacity="0" result="BackgroundImageFix"/>
<feColorMatrix in="SourceAlpha" type="matrix" values="0 0 0 0 0 0 0 0 0 0 0 0 0 0 0 0 0 0 127 0" result="hardAlpha"/>
<feOffset dy="4"/>
<feGaussianBlur stdDeviation="2"/>
<feComposite in2="hardAlpha" operator="out"/>
<feColorMatrix type="matrix" values="0 0 0 0 0 0 0 0 0 0 0 0 0 0 0 0 0 0 0.25 0"/>
<feBlend mode="normal" in2="BackgroundImageFix" result="effect1_dropShadow_1471_18584"/>
<feBlend mode="normal" in="SourceGraphic" in2="effect1_dropShadow_1471_18584" result="shape"/>
</filter>
</defs>
</svg>
