<svg width="17" height="17" viewBox="0 0 17 17" fill="none" xmlns="http://www.w3.org/2000/svg">
<path d="M6.80007 0C4.99658 0 3.26696 0.716434 1.9917 1.9917C0.716434 3.26696 0 4.99658 0 6.80007C0 8.60356 0.716434 10.3332 1.9917 11.6084C3.26696 12.8837 4.99658 13.6001 6.80007 13.6001C8.60356 13.6001 10.3332 12.8837 11.6084 11.6084C12.8837 10.3332 13.6001 8.60356 13.6001 6.80007C13.6001 4.99658 12.8837 3.26696 11.6084 1.9917C10.3332 0.716434 8.60356 0 6.80007 0Z" fill="#F2ECDC"/>
<path fill-rule="evenodd" clip-rule="evenodd" d="M16.7511 16.7511C16.5917 16.9105 16.3755 17 16.1501 17C15.9247 17 15.7085 16.9105 15.5491 16.7511L12.5741 13.7761C12.4193 13.6158 12.3336 13.4011 12.3355 13.1782C12.3375 12.9553 12.4269 12.7421 12.5845 12.5845C12.7421 12.4269 12.9553 12.3375 13.1781 12.3356C13.401 12.3337 13.6157 12.4193 13.776 12.5742L16.7511 15.5492C16.9104 15.7086 16.9999 15.9248 16.9999 16.1502C16.9999 16.3756 16.9104 16.5917 16.7511 16.7511Z" fill="#F2ECDC"/>
</svg>
