<svg width="18" height="18" viewBox="0 0 18 18" fill="none" xmlns="http://www.w3.org/2000/svg">
<path fill-rule="evenodd" clip-rule="evenodd" d="M10.7888 11.5845C9.77779 12.3924 8.49582 12.7824 7.2062 12.6746C5.91658 12.5667 4.71721 11.9691 3.85441 11.0046C2.99162 10.04 2.53091 8.78174 2.5669 7.48812C2.60289 6.19449 3.13285 4.96375 4.04793 4.04867C4.96302 3.13358 6.19376 2.60362 7.48738 2.56763C8.78101 2.53164 10.0393 2.99236 11.0039 3.85515C11.9684 4.71794 12.566 5.91731 12.6738 7.20693C12.7817 8.49655 12.3916 9.77853 11.5838 10.7895L15.4508 14.6558C15.5061 14.7073 15.5504 14.7694 15.5812 14.8384C15.6119 14.9074 15.6284 14.9819 15.6298 15.0574C15.6311 15.1329 15.6172 15.208 15.5889 15.278C15.5606 15.348 15.5185 15.4117 15.4651 15.4651C15.4117 15.5185 15.3481 15.5606 15.278 15.5889C15.208 15.6172 15.133 15.6311 15.0574 15.6297C14.9819 15.6284 14.9074 15.6119 14.8384 15.5811C14.7694 15.5504 14.7073 15.5061 14.6558 15.4508L10.7888 11.5845ZM4.84507 10.413C4.2946 9.86252 3.91968 9.16117 3.7677 8.39763C3.61572 7.63409 3.6935 6.84263 3.9912 6.12327C4.28891 5.40392 4.79317 4.78897 5.44028 4.35613C6.08738 3.92328 6.84827 3.69199 7.6268 3.69146C8.40532 3.69094 9.16652 3.92121 9.81421 4.35318C10.4619 4.78515 10.967 5.39943 11.2657 6.11838C11.5643 6.83733 11.6432 7.62868 11.4922 8.39243C11.3413 9.15618 10.9673 9.85803 10.4176 10.4093L10.4138 10.413L10.4101 10.416C9.67139 11.153 8.67039 11.5666 7.62695 11.5661C6.58351 11.5655 5.58295 11.1508 4.84507 10.413Z" fill="#6D726B"/>
</svg>
