<svg width="18" height="14" viewBox="0 0 18 14" fill="none" xmlns="http://www.w3.org/2000/svg">
<path d="M1.4713 0.5H9.48558L9.24272 3.44101C9.39318 7.01267 11.6713 9.56811 12.8856 9.56811H16.0427C16.5284 9.56811 16.7713 10.7935 16.7713 11.2837C16.7713 11.2837 17.0142 12.264 17.0142 12.5091C17.0142 12.7542 11.5612 13.9843 6.57129 12.7542H5.84272V13.2444C3.87459 13.5786 2.76549 13.6674 0.742728 12.9993V11.0386C0.499863 10.7935 0.71628 8.27547 1.4713 6.6271C1.83616 5.7333 1.89664 4.98867 1.71416 3.19592L1.4713 0.5Z" fill="#F2ECDC"/>
<path d="M0.742728 11.0386C0.499863 10.7935 0.71628 8.27547 1.4713 6.6271C1.83616 5.7333 1.89664 4.98867 1.71416 3.19592L1.4713 0.5H9.48558L9.24272 3.44101C9.39318 7.01267 11.6713 9.56811 12.8856 9.56811C14.0999 9.56811 15.557 9.56811 16.0427 9.56811C16.5284 9.56811 16.7713 10.7935 16.7713 11.2837M0.742728 11.0386C0.985593 11.2837 4.14719 11.5019 6.32844 11.2837C10.4068 12.3147 16.7713 11.7739 16.7713 11.2837M0.742728 11.0386V12.9993C2.76549 13.6674 3.87459 13.5786 5.84272 13.2444V12.7542H6.57129C11.5612 13.9843 17.0142 12.7542 17.0142 12.5091C17.0142 12.264 16.7713 11.2837 16.7713 11.2837" stroke="#F2ECDC"/>
<path d="M0.162109 10.7936C2.42451 11.5691 3.73501 11.4624 6.08635 11.0852C10.5448 12.65 12.9711 12.6641 17.1621 11.0852" stroke="white"/>
</svg>
