<svg width="21" height="16" viewBox="0 0 21 16" fill="none" xmlns="http://www.w3.org/2000/svg">
<path d="M0.348224 7.1356C0.125256 7.36096 0 7.66657 0 7.98523C0 8.30389 0.125256 8.6095 0.348224 8.83486L7.07635 15.6331C7.18606 15.7479 7.3173 15.8395 7.4624 15.9024C7.60751 15.9654 7.76357 15.9986 7.92149 16C8.07941 16.0013 8.23602 15.9709 8.38219 15.9105C8.52836 15.8501 8.66115 15.7609 8.77282 15.648C8.88449 15.5352 8.9728 15.401 9.0326 15.2533C9.09241 15.1056 9.1225 14.9474 9.12113 14.7878C9.11975 14.6282 9.08694 14.4706 9.02461 14.3239C8.96228 14.1773 8.87167 14.0447 8.75808 13.9339L4.06017 9.18698H19.8107C20.1261 9.18698 20.4286 9.06036 20.6516 8.83499C20.8747 8.60962 21 8.30395 21 7.98523C21 7.66651 20.8747 7.36084 20.6516 7.13547C20.4286 6.9101 20.1261 6.78349 19.8107 6.78349L4.06017 6.78349L8.75808 2.03661C8.97473 1.80995 9.09461 1.50639 9.0919 1.1913C9.08919 0.876207 8.9641 0.574795 8.74359 0.351982C8.52308 0.129169 8.22477 0.00278257 7.91293 4.44982e-05C7.60109 -0.00269358 7.30066 0.118435 7.07635 0.337342L0.348224 7.1356Z" fill="#F2ECDC"/>
</svg>
