<svg width="21" height="16" viewBox="0 0 21 16" fill="none" xmlns="http://www.w3.org/2000/svg">
<path d="M20.6518 8.8644C20.8747 8.63904 21 8.33343 21 8.01477C21 7.69611 20.8747 7.3905 20.6518 7.16514L13.9237 0.366878C13.8139 0.252099 13.6827 0.160548 13.5376 0.0975657C13.3925 0.0345836 13.2364 0.00143196 13.0785 4.53734e-05C12.9206 -0.00134122 12.764 0.0290652 12.6178 0.0894899C12.4716 0.149915 12.3389 0.239148 12.2272 0.351983C12.1155 0.464817 12.0272 0.598994 11.9674 0.746684C11.9076 0.894373 11.8775 1.05262 11.8789 1.21219C11.8802 1.37175 11.9131 1.52944 11.9754 1.67606C12.0377 1.82268 12.1283 1.95529 12.2419 2.06614L16.9398 6.81302L1.18934 6.81302C0.873911 6.81302 0.571396 6.93964 0.34835 7.16501C0.125305 7.39038 3.8237e-07 7.69605 3.8237e-07 8.01477C3.8237e-07 8.33349 0.125305 8.63916 0.34835 8.86453C0.571396 9.0899 0.873911 9.21651 1.18934 9.21651L16.9398 9.21651L12.2419 13.9634C12.0253 14.19 11.9054 14.4936 11.9081 14.8087C11.9108 15.1238 12.0359 15.4252 12.2564 15.648C12.4769 15.8708 12.7752 15.9972 13.0871 16C13.3989 16.0027 13.6993 15.8816 13.9237 15.6627L20.6518 8.8644Z" fill="#F2ECDC"/>
</svg>
